<svg width="68" height="12" viewBox="0 0 68 12" fill="none" xmlns="http://www.w3.org/2000/svg">
<path d="M4.476 9.096C3.604 9.096 2.876 8.912 2.292 8.544C1.716 8.168 1.284 7.656 0.996 7.008C0.716 6.352 0.576 5.604 0.576 4.764C0.576 3.932 0.72 3.192 1.008 2.544C1.296 1.888 1.728 1.372 2.304 0.995999C2.888 0.612 3.62 0.42 4.5 0.42C5.124 0.42 5.66 0.52 6.108 0.719999C6.564 0.912 6.932 1.18 7.212 1.524C7.492 1.868 7.684 2.272 7.788 2.736H6.732C6.612 2.32 6.352 1.988 5.952 1.74C5.56 1.492 5.064 1.368 4.464 1.368C3.792 1.368 3.248 1.528 2.832 1.848C2.424 2.16 2.124 2.572 1.932 3.084C1.74 3.588 1.644 4.136 1.644 4.728C1.644 5.352 1.744 5.924 1.944 6.444C2.144 6.964 2.456 7.38 2.88 7.692C3.304 7.996 3.844 8.148 4.5 8.148C4.9 8.148 5.256 8.092 5.568 7.98C5.888 7.868 6.152 7.708 6.36 7.5C6.576 7.292 6.724 7.052 6.804 6.78H7.944C7.824 7.244 7.608 7.652 7.296 8.004C6.992 8.348 6.604 8.616 6.132 8.808C5.66 9 5.108 9.096 4.476 9.096ZM8.74753 9.012V8.124C8.90753 8.124 9.05153 8.092 9.17953 8.028C9.30753 7.956 9.41953 7.852 9.51553 7.716C9.62753 7.556 9.71553 7.324 9.77953 7.02C9.84353 6.716 9.88753 6.392 9.91153 6.048C9.94353 5.664 9.96753 5.288 9.98353 4.92C9.99953 4.544 10.0115 4.172 10.0195 3.804C10.0355 3.436 10.0435 3.06 10.0435 2.676H14.4355V9H13.4155V3.576H11.0395C11.0315 3.848 11.0195 4.124 11.0035 4.404C10.9955 4.676 10.9835 4.952 10.9675 5.232C10.9595 5.504 10.9475 5.78 10.9315 6.06C10.9235 6.38 10.8915 6.74 10.8355 7.14C10.7795 7.54 10.6595 7.904 10.4755 8.232C10.2995 8.544 10.0835 8.752 9.82753 8.856C9.57953 8.96 9.21953 9.012 8.74753 9.012ZM18.7744 9.072C18.1024 9.072 17.5464 8.936 17.1064 8.664C16.6664 8.384 16.3384 8 16.1224 7.512C15.9064 7.024 15.7984 6.468 15.7984 5.844C15.7984 5.212 15.9104 4.656 16.1344 4.176C16.3664 3.688 16.7024 3.304 17.1424 3.024C17.5824 2.744 18.1224 2.604 18.7624 2.604C19.2344 2.604 19.6464 2.696 19.9984 2.88C20.3584 3.056 20.6544 3.296 20.8864 3.6C21.1264 3.904 21.2984 4.244 21.4024 4.62C21.5144 4.996 21.5624 5.384 21.5464 5.784C21.5384 5.856 21.5344 5.928 21.5344 6C21.5344 6.072 21.5304 6.144 21.5224 6.216H16.8304C16.8624 6.584 16.9544 6.916 17.1064 7.212C17.2584 7.508 17.4744 7.744 17.7544 7.92C18.0344 8.088 18.3824 8.172 18.7984 8.172C19.0064 8.172 19.2144 8.148 19.4224 8.1C19.6384 8.044 19.8304 7.952 19.9984 7.824C20.1744 7.696 20.2984 7.524 20.3704 7.308H21.4144C21.3184 7.716 21.1384 8.052 20.8744 8.316C20.6104 8.572 20.2944 8.764 19.9264 8.892C19.5584 9.012 19.1744 9.072 18.7744 9.072ZM16.8544 5.328H20.5144C20.5064 4.968 20.4264 4.652 20.2744 4.38C20.1224 4.108 19.9144 3.896 19.6504 3.744C19.3944 3.592 19.0864 3.516 18.7264 3.516C18.3344 3.516 18.0024 3.6 17.7304 3.768C17.4664 3.936 17.2624 4.156 17.1184 4.428C16.9744 4.7 16.8864 5 16.8544 5.328ZM22.2367 10.944V8.112C22.4687 8.112 22.6527 8.048 22.7887 7.92C22.9327 7.792 23.0447 7.624 23.1247 7.416C23.2047 7.208 23.2647 6.984 23.3047 6.744C23.3447 6.496 23.3767 6.26 23.4007 6.036C23.4407 5.668 23.4647 5.304 23.4727 4.944C23.4887 4.576 23.4967 4.284 23.4967 4.068C23.5047 3.836 23.5087 3.604 23.5087 3.372C23.5087 3.14 23.5087 2.908 23.5087 2.676H27.9967V8.112H28.8247V10.944H27.8407V9H23.2207V10.944H22.2367ZM23.8567 8.112H26.9767V3.576H24.4807C24.4727 3.912 24.4647 4.288 24.4567 4.704C24.4487 5.12 24.4327 5.508 24.4087 5.868C24.4007 6.076 24.3807 6.312 24.3487 6.576C24.3247 6.84 24.2767 7.108 24.2047 7.38C24.1327 7.644 24.0167 7.888 23.8567 8.112ZM30.0939 11.712V10.74C30.4859 10.74 30.7979 10.684 31.0299 10.572C31.2619 10.468 31.4539 10.3 31.6059 10.068C31.7659 9.844 31.9179 9.556 32.0619 9.204L29.2899 2.676H30.4899L32.6259 8.004L34.3779 2.676H35.5299L33.7539 7.656C33.6659 7.912 33.5659 8.2 33.4539 8.52C33.3419 8.84 33.2179 9.164 33.0819 9.492C32.9459 9.828 32.7939 10.136 32.6259 10.416C32.4659 10.704 32.2859 10.936 32.0859 11.112C31.9179 11.264 31.7539 11.384 31.5939 11.472C31.4339 11.56 31.2379 11.62 31.0059 11.652C30.7819 11.692 30.4779 11.712 30.0939 11.712ZM41.5999 9.072C40.6719 9.072 39.9719 8.816 39.4999 8.304C39.0279 7.784 38.7599 7.112 38.6959 6.288H37.4959V9H36.4759V2.676H37.4959V5.4H38.6959C38.7439 4.848 38.8759 4.364 39.0919 3.948C39.3159 3.524 39.6359 3.196 40.0519 2.964C40.4679 2.724 40.9839 2.604 41.5999 2.604C42.2719 2.604 42.8279 2.744 43.2679 3.024C43.7079 3.304 44.0359 3.688 44.2519 4.176C44.4679 4.656 44.5759 5.212 44.5759 5.844C44.5759 6.468 44.4679 7.024 44.2519 7.512C44.0359 8 43.7079 8.384 43.2679 8.664C42.8279 8.936 42.2719 9.072 41.5999 9.072ZM41.5999 8.172C42.0639 8.172 42.4359 8.068 42.7159 7.86C43.0039 7.652 43.2159 7.372 43.3519 7.02C43.4879 6.668 43.5559 6.276 43.5559 5.844C43.5559 5.412 43.4879 5.02 43.3519 4.668C43.2159 4.316 43.0039 4.036 42.7159 3.828C42.4359 3.62 42.0639 3.516 41.5999 3.516C41.1439 3.516 40.7719 3.62 40.4839 3.828C40.2039 4.036 39.9999 4.316 39.8719 4.668C39.7439 5.02 39.6799 5.412 39.6799 5.844C39.6799 6.276 39.7439 6.668 39.8719 7.02C39.9999 7.372 40.2039 7.652 40.4839 7.86C40.7719 8.068 41.1439 8.172 41.5999 8.172ZM53.5778 10.944V9H45.8978V2.676H46.9178V8.112H49.2938V2.676H50.3138V8.112H52.7138V2.676H53.7338V8.112H54.5618V10.944H53.5778ZM57.6523 9.072C57.3643 9.072 57.0843 9.036 56.8123 8.964C56.5483 8.884 56.3083 8.768 56.0923 8.616C55.8843 8.456 55.7163 8.26 55.5883 8.028C55.4683 7.788 55.4083 7.512 55.4083 7.2C55.4083 6.84 55.4723 6.536 55.6003 6.288C55.7363 6.04 55.9163 5.844 56.1403 5.7C56.3643 5.556 56.6243 5.452 56.9203 5.388C57.2163 5.324 57.5243 5.292 57.8443 5.292H59.7043C59.7043 4.932 59.6523 4.62 59.5483 4.356C59.4523 4.092 59.2923 3.888 59.0683 3.744C58.8443 3.592 58.5483 3.516 58.1803 3.516C57.9563 3.516 57.7483 3.54 57.5563 3.588C57.3643 3.636 57.2003 3.712 57.0643 3.816C56.9283 3.92 56.8283 4.06 56.7643 4.236H55.6723C55.7283 3.948 55.8363 3.704 55.9963 3.504C56.1643 3.296 56.3643 3.128 56.5963 3C56.8363 2.864 57.0923 2.764 57.3643 2.7C57.6363 2.636 57.9083 2.604 58.1803 2.604C58.7883 2.604 59.2763 2.728 59.6443 2.976C60.0123 3.216 60.2803 3.56 60.4483 4.008C60.6163 4.448 60.7003 4.972 60.7003 5.58V9H59.8483L59.7883 8.196C59.6123 8.436 59.4003 8.62 59.1523 8.748C58.9043 8.876 58.6483 8.96 58.3843 9C58.1283 9.048 57.8843 9.072 57.6523 9.072ZM57.7483 8.172C58.1483 8.172 58.4923 8.108 58.7803 7.98C59.0763 7.844 59.3043 7.648 59.4643 7.392C59.6243 7.136 59.7043 6.824 59.7043 6.456V6.144H58.5883C58.3243 6.144 58.0643 6.148 57.8083 6.156C57.5523 6.164 57.3203 6.196 57.1123 6.252C56.9043 6.308 56.7363 6.404 56.6083 6.54C56.4883 6.676 56.4283 6.872 56.4283 7.128C56.4283 7.368 56.4883 7.564 56.6083 7.716C56.7363 7.868 56.9003 7.984 57.1003 8.064C57.3083 8.136 57.5243 8.172 57.7483 8.172ZM61.8846 9L63.5286 6.504C63.0726 6.376 62.7126 6.168 62.4486 5.88C62.1846 5.584 62.0526 5.192 62.0526 4.704C62.0526 4.32 62.1086 4 62.2206 3.744C62.3326 3.48 62.4966 3.272 62.7126 3.12C62.9286 2.96 63.1886 2.848 63.4926 2.784C63.7966 2.712 64.1446 2.676 64.5366 2.676H67.0806V9H66.0606V6.66H64.6086L63.0726 9H61.8846ZM65.3046 5.772H66.0606V3.576H64.7046C64.4646 3.576 64.2446 3.588 64.0446 3.612C63.8446 3.636 63.6726 3.688 63.5286 3.768C63.3926 3.84 63.2846 3.948 63.2046 4.092C63.1246 4.228 63.0846 4.416 63.0846 4.656C63.0846 4.92 63.1486 5.128 63.2766 5.28C63.4126 5.432 63.5846 5.544 63.7926 5.616C64.0086 5.68 64.2486 5.724 64.5126 5.748C64.7766 5.764 65.0406 5.772 65.3046 5.772Z" fill="#9B9BAB"/>
</svg>
