<svg width="178" height="48" viewBox="0 0 178 48" fill="none" xmlns="http://www.w3.org/2000/svg">
<path d="M178 28.4834H174.334V24.3508C174.334 22.554 173.815 21.2214 172.777 20.3529C171.769 19.4845 170.455 19.0503 168.836 19.0503C167.645 19.0503 166.53 19.2749 165.492 19.7241C164.484 20.1733 163.628 20.7123 162.926 21.3412L162.239 18.4214C162.972 17.9123 163.934 17.4032 165.125 16.8941C166.347 16.3551 167.752 16.0856 169.34 16.0856C171.876 16.0856 173.953 16.7594 175.572 18.107C177.19 19.4545 178 21.5059 178 24.261V28.4834ZM159.719 25.5636H163.384V37.3326C163.231 37.3925 163.002 37.4524 162.697 37.5123C162.391 37.6021 162.055 37.6471 161.689 37.6471C161.047 37.6471 160.559 37.5273 160.223 37.2877C159.887 37.0182 159.719 36.5989 159.719 36.0299V25.5636ZM174.334 25.6086L178 25.6535V37.3326C177.847 37.3925 177.603 37.4524 177.267 37.5123C176.961 37.6021 176.641 37.6471 176.305 37.6471C175.633 37.6471 175.129 37.5273 174.793 37.2877C174.487 37.0182 174.334 36.5989 174.334 36.0299V25.6086ZM163.384 27.3155H159.719V8.31444C159.871 8.25454 160.101 8.19465 160.406 8.13476C160.742 8.04492 161.093 8 161.46 8C162.101 8 162.575 8.13476 162.88 8.40428C163.216 8.64385 163.384 9.04813 163.384 9.61711V27.3155Z" fill="white"/>
<path d="M147.723 18.972C145.627 18.972 143.886 19.6522 142.499 21.0125C141.112 22.3729 140.418 24.3247 140.418 26.8679C140.418 29.3815 141.081 31.3185 142.406 32.6789C143.762 34.0392 145.535 34.7194 147.723 34.7194C149.018 34.7194 150.096 34.5567 150.959 34.2314C151.822 33.8766 152.593 33.4773 153.271 33.0337C153.61 33.2112 153.888 33.433 154.103 33.6991C154.319 33.9653 154.427 34.2906 154.427 34.675C154.427 35.5031 153.78 36.2128 152.485 36.8042C151.221 37.3661 149.634 37.6471 147.723 37.6471C145.596 37.6471 143.685 37.2626 141.99 36.4937C140.326 35.6953 139.016 34.4976 138.06 32.9007C137.105 31.3038 136.627 29.2928 136.627 26.8679C136.627 24.4725 137.12 22.4764 138.106 20.8795C139.093 19.253 140.418 18.0405 142.083 17.242C143.778 16.414 145.627 16 147.631 16C149.542 16 151.114 16.3105 152.346 16.9315C153.61 17.5526 154.242 18.2623 154.242 19.0608C154.242 19.4156 154.134 19.7261 153.918 19.9923C153.703 20.2584 153.425 20.4654 153.086 20.6133C152.408 20.1697 151.653 19.7853 150.821 19.46C150.019 19.1347 148.987 18.972 147.723 18.972Z" fill="white"/>
<path d="M115.583 29.0858L115.399 26.2912L129.284 24.4725C129.161 22.846 128.579 21.5153 127.537 20.4802C126.495 19.4156 125.054 18.8833 123.215 18.8833C121.315 18.8833 119.736 19.5487 118.479 20.8795C117.253 22.1806 116.64 24.0585 116.64 26.513V27.4889C116.855 29.8547 117.652 31.6586 119.031 32.9007C120.441 34.1131 122.357 34.7194 124.778 34.7194C126.066 34.7194 127.23 34.5124 128.272 34.0984C129.315 33.6843 130.142 33.2408 130.755 32.7676C131.092 32.9746 131.353 33.226 131.537 33.5217C131.751 33.7878 131.859 34.0984 131.859 34.4532C131.859 35.0151 131.522 35.5474 130.847 36.0501C130.204 36.5233 129.33 36.9077 128.227 37.2035C127.154 37.4992 125.943 37.6471 124.594 37.6471C122.234 37.6471 120.18 37.233 118.433 36.405C116.717 35.577 115.383 34.3497 114.433 32.7232C113.514 31.0672 113.054 29.0562 113.054 26.6905C113.054 25.0048 113.299 23.5114 113.79 22.2102C114.311 20.8795 115.016 19.7557 115.905 18.839C116.824 17.9222 117.912 17.2273 119.169 16.7541C120.426 16.2514 121.79 16 123.261 16C125.131 16 126.771 16.3844 128.181 17.1533C129.621 17.9222 130.74 19.0016 131.537 20.3915C132.364 21.7518 132.778 23.3192 132.778 25.0935C132.778 25.7441 132.625 26.2173 132.319 26.513C132.012 26.7792 131.583 26.9418 131.031 27.001L115.583 29.0858Z" fill="white"/>
<path d="M97.6594 25.6325H101.282V31.8525C101.282 33.0545 101.629 33.9108 102.323 34.4217C103.017 34.9024 103.968 35.1428 105.176 35.1428C105.689 35.1428 106.262 35.0527 106.896 34.8724C107.53 34.6921 108.058 34.4818 108.481 34.2414C108.662 34.4217 108.828 34.647 108.979 34.9175C109.13 35.1879 109.205 35.5034 109.205 35.864C109.205 36.525 108.813 37.0659 108.028 37.4866C107.243 37.9073 106.157 38.1176 104.768 38.1176C102.655 38.1176 100.935 37.6519 99.6064 36.7204C98.3084 35.7889 97.6594 34.2414 97.6594 32.0779V25.6325ZM99.5158 20.1337V17.1589H108.707C108.798 17.2791 108.888 17.4744 108.979 17.7448C109.07 18.0152 109.115 18.3007 109.115 18.6012C109.115 19.082 108.994 19.4576 108.753 19.728C108.511 19.9984 108.179 20.1337 107.756 20.1337H99.5158ZM101.282 26.9847H97.6594V10.6684C97.8104 10.6083 98.0367 10.5482 98.3386 10.4881C98.6706 10.398 99.0178 10.3529 99.38 10.3529C100.014 10.3529 100.482 10.4881 100.784 10.7586C101.116 10.9989 101.282 11.4046 101.282 11.9755V26.9847Z" fill="white"/>
<path d="M82.7135 34.7254C84.0081 34.7254 85.0714 34.6073 85.9036 34.3712C86.7667 34.1056 87.3831 33.8548 87.753 33.6187V27.1998L82.02 27.7753C80.4172 27.8933 79.2306 28.2327 78.46 28.7935C77.6894 29.3542 77.3042 30.1658 77.3042 31.2282C77.3042 32.3201 77.7511 33.176 78.6449 33.7957C79.5696 34.4155 80.9258 34.7254 82.7135 34.7254ZM82.6673 16C85.3488 16 87.4756 16.5755 89.0475 17.7265C90.6195 18.8774 91.4055 20.6924 91.4055 23.1714V33.6629C91.4055 34.3122 91.2668 34.8139 90.9894 35.168C90.7428 35.4927 90.3575 35.8026 89.8335 36.0977C89.0938 36.4813 88.1075 36.8355 86.8746 37.1601C85.6417 37.4847 84.2546 37.6471 82.7135 37.6471C79.8162 37.6471 77.5662 37.1011 75.9634 36.0091C74.3914 34.9172 73.6055 33.3383 73.6055 31.2725C73.6055 29.3542 74.2681 27.8933 75.5935 26.8899C76.9497 25.857 78.8145 25.2373 81.1878 25.0307L87.753 24.4109V23.1714C87.753 21.6958 87.2907 20.6186 86.366 19.9399C85.4413 19.2611 84.193 18.9217 82.6211 18.9217C81.3573 18.9217 80.1398 19.0988 78.9686 19.4529C77.8281 19.807 76.811 20.2055 75.9172 20.6481C75.6706 20.4416 75.4394 20.2055 75.2236 19.9399C75.0387 19.6447 74.9462 19.3496 74.9462 19.0545C74.9462 18.2872 75.3932 17.6969 76.287 17.2838C77.1192 16.8706 78.0747 16.5607 79.1535 16.3541C80.2631 16.118 81.4344 16 82.6673 16Z" fill="white"/>
<path d="M57.7297 25.6325H61.352V31.8525C61.352 33.0545 61.6991 33.9108 62.3934 34.4217C63.0877 34.9024 64.0385 35.1428 65.2459 35.1428C65.7591 35.1428 66.3326 35.0527 66.9665 34.8724C67.6004 34.6921 68.1286 34.4818 68.5512 34.2414C68.7323 34.4217 68.8984 34.647 69.0493 34.9175C69.2002 35.1879 69.2757 35.5034 69.2757 35.864C69.2757 36.525 68.8833 37.0659 68.0984 37.4866C67.3136 37.9073 66.227 38.1176 64.8384 38.1176C62.7254 38.1176 61.0049 37.6519 59.6767 36.7204C58.3787 35.7889 57.7297 34.2414 57.7297 32.0779V25.6325ZM59.5861 20.1337V17.1589H68.7776C68.8682 17.2791 68.9587 17.4744 69.0493 17.7448C69.1399 18.0152 69.1851 18.3007 69.1851 18.6012C69.1851 19.082 69.0644 19.4576 68.8229 19.728C68.5814 19.9984 68.2494 20.1337 67.8268 20.1337H59.5861ZM61.352 26.9847H57.7297V10.6684C57.8807 10.6083 58.1071 10.5482 58.4089 10.4881C58.741 10.398 59.0881 10.3529 59.4503 10.3529C60.0842 10.3529 60.5521 10.4881 60.8539 10.7586C61.186 10.9989 61.352 11.4046 61.352 11.9755V26.9847Z" fill="white"/>
<path d="M35.2421 29.0858L35.0582 26.2912L48.9434 24.4725C48.8208 22.846 48.2384 21.5153 47.1963 20.4802C46.1541 19.4156 44.7135 18.8833 42.8744 18.8833C40.974 18.8833 39.3954 19.5487 38.1387 20.8795C36.9127 22.1806 36.2996 24.0585 36.2996 26.513V27.4889C36.5142 29.8547 37.3111 31.6586 38.6904 32.9007C40.1004 34.1131 42.0161 34.7194 44.4376 34.7194C45.725 34.7194 46.8898 34.5124 47.9319 34.0984C48.9741 33.6843 49.8017 33.2408 50.4147 32.7676C50.7519 32.9746 51.0124 33.226 51.1963 33.5217C51.4109 33.7878 51.5182 34.0984 51.5182 34.4532C51.5182 35.0151 51.181 35.5474 50.5066 36.0501C49.863 36.5233 48.9894 36.9077 47.8859 37.2035C46.8131 37.4992 45.6024 37.6471 44.2537 37.6471C41.8935 37.6471 39.8399 37.233 38.0927 36.405C36.3762 35.577 35.0429 34.3497 34.0927 32.7232C33.1732 31.0672 32.7134 29.0562 32.7134 26.6905C32.7134 25.0048 32.9586 23.5114 33.449 22.2102C33.9701 20.8795 34.6751 19.7557 35.564 18.839C36.4835 17.9222 37.5717 17.2273 38.8284 16.7541C40.0851 16.2514 41.4491 16 42.9204 16C44.7901 16 46.43 16.3844 47.84 17.1533C49.2806 17.9222 50.3994 19.0016 51.1963 20.3915C52.0239 21.7518 52.4377 23.3192 52.4377 25.0935C52.4377 25.7441 52.2844 26.2173 51.9779 26.513C51.6714 26.7792 51.2423 26.9418 50.6906 27.001L35.2421 29.0858Z" fill="white"/>
<path d="M13.7336 37.1765H12.2751C12.0624 36.9972 11.8801 36.7731 11.7282 36.5042C11.6067 36.2054 11.5459 35.9066 11.5459 35.6078C11.5459 35.2493 11.6219 34.9206 11.7738 34.6218C11.9561 34.2932 12.1536 33.9795 12.3663 33.6807L26.3581 16.4706H27.771C28.0141 16.6797 28.1964 16.9188 28.3179 17.1877C28.4698 17.4566 28.5458 17.7554 28.5458 18.084C28.5458 18.4127 28.4698 18.7264 28.3179 19.0252C28.166 19.324 27.9533 19.6377 27.6798 19.9664L13.7336 37.1765ZM27.2697 16.4706V19.4286H12.2295C12.1384 19.2792 12.0472 19.07 11.9561 18.8011C11.8649 18.5322 11.8194 18.2484 11.8194 17.9496C11.8194 17.4416 11.9409 17.0682 12.184 16.8291C12.427 16.5901 12.7613 16.4706 13.1866 16.4706H27.2697ZM12.5486 37.1765V34.2633H28.4546C28.5458 34.3828 28.6369 34.577 28.7281 34.8459C28.8192 35.085 28.8648 35.3688 28.8648 35.6975C28.8648 36.1755 28.7433 36.549 28.5002 36.8179C28.2571 37.0569 27.9077 37.1765 27.452 37.1765H12.5486Z" fill="white"/>
<path fill-rule="evenodd" clip-rule="evenodd" d="M0.481201 0H94.7731V10.8006H93.8109V0.941176H1.44336V47.0588H93.8109V37.9646H94.7731V48H0.481201V0Z" fill="white"/>
</svg>
