<svg width="371" height="102" viewBox="0 0 371 102" fill="none" xmlns="http://www.w3.org/2000/svg">
  <path
    d="M370.981 62.095H363.381V53.355C363.381 49.555 362.304 46.7367 360.151 44.9C358.061 43.0634 355.337 42.145 351.981 42.145C349.511 42.145 347.199 42.62 345.046 43.57C342.956 44.52 341.182 45.66 339.726 46.99L338.301 40.815C339.821 39.7384 341.816 38.6617 344.286 37.585C346.819 36.445 349.732 35.875 353.026 35.875C358.282 35.875 362.589 37.3 365.946 40.15C369.302 43 370.981 47.3384 370.981 53.165V62.095ZM333.076 55.92H340.676V80.81C340.359 80.9367 339.884 81.0634 339.251 81.19C338.617 81.38 337.921 81.475 337.161 81.475C335.831 81.475 334.817 81.2217 334.121 80.715C333.424 80.145 333.076 79.2584 333.076 78.055V55.92ZM363.381 56.015L370.981 56.11V80.81C370.664 80.9367 370.157 81.0634 369.461 81.19C368.827 81.38 368.162 81.475 367.466 81.475C366.072 81.475 365.027 81.2217 364.331 80.715C363.697 80.145 363.381 79.2584 363.381 78.055V56.015ZM340.676 59.625H333.076V19.44C333.392 19.3134 333.867 19.1867 334.501 19.06C335.197 18.87 335.926 18.775 336.686 18.775C338.016 18.775 338.997 19.06 339.631 19.63C340.327 20.1367 340.676 20.9917 340.676 22.195V59.625Z"
    fill="black" />
  <path
    d="M307.849 42.24C303.543 42.24 299.964 43.6967 297.114 46.61C294.264 49.5233 292.839 53.7033 292.839 59.15C292.839 64.5333 294.201 68.6817 296.924 71.595C299.711 74.5083 303.353 75.965 307.849 75.965C310.509 75.965 312.726 75.6167 314.499 74.92C316.273 74.16 317.856 73.305 319.249 72.355C319.946 72.735 320.516 73.21 320.959 73.78C321.403 74.35 321.624 75.0467 321.624 75.87C321.624 77.6433 320.294 79.1633 317.634 80.43C315.038 81.6333 311.776 82.235 307.849 82.235C303.479 82.235 299.553 81.4117 296.069 79.765C292.649 78.055 289.958 75.49 287.994 72.07C286.031 68.65 285.049 64.3433 285.049 59.15C285.049 54.02 286.063 49.745 288.089 46.325C290.116 42.8417 292.839 40.245 296.259 38.535C299.743 36.7617 303.543 35.875 307.659 35.875C311.586 35.875 314.816 36.54 317.349 37.87C319.946 39.2 321.244 40.72 321.244 42.43C321.244 43.19 321.023 43.855 320.579 44.425C320.136 44.995 319.566 45.4383 318.869 45.755C317.476 44.805 315.924 43.9817 314.214 43.285C312.568 42.5883 310.446 42.24 307.849 42.24Z"
    fill="black" />
  <path
    d="M241.012 63.9L240.632 57.915L269.322 54.02C269.068 50.5367 267.865 47.6867 265.712 45.47C263.558 43.19 260.582 42.05 256.782 42.05C252.855 42.05 249.593 43.475 246.997 46.325C244.463 49.1117 243.197 53.1333 243.197 58.39V60.48C243.64 65.5467 245.287 69.41 248.137 72.07C251.05 74.6667 255.008 75.965 260.012 75.965C262.672 75.965 265.078 75.5217 267.232 74.635C269.385 73.7483 271.095 72.7983 272.362 71.785C273.058 72.2283 273.597 72.7667 273.977 73.4C274.42 73.97 274.642 74.635 274.642 75.395C274.642 76.5983 273.945 77.7383 272.552 78.815C271.222 79.8283 269.417 80.6517 267.137 81.285C264.92 81.9183 262.418 82.235 259.632 82.235C254.755 82.235 250.512 81.3483 246.902 79.575C243.355 77.8017 240.6 75.1733 238.637 71.69C236.737 68.1433 235.787 63.8367 235.787 58.77C235.787 55.16 236.293 51.9617 237.307 49.175C238.383 46.325 239.84 43.9183 241.677 41.955C243.577 39.9917 245.825 38.5033 248.422 37.49C251.018 36.4133 253.837 35.875 256.877 35.875C260.74 35.875 264.128 36.6983 267.042 38.345C270.018 39.9917 272.33 42.3033 273.977 45.28C275.687 48.1933 276.542 51.55 276.542 55.35C276.542 56.7433 276.225 57.7567 275.592 58.39C274.958 58.96 274.072 59.3083 272.932 59.435L241.012 63.9Z"
    fill="black" />
  <path
    d="M204.397 55.92H211.997V69.03C211.997 71.5633 212.725 73.3683 214.182 74.445C215.638 75.4583 217.633 75.965 220.167 75.965C221.243 75.965 222.447 75.775 223.777 75.395C225.107 75.015 226.215 74.5716 227.102 74.065C227.482 74.445 227.83 74.92 228.147 75.49C228.463 76.06 228.622 76.725 228.622 77.485C228.622 78.8783 227.798 80.0183 226.152 80.905C224.505 81.7916 222.225 82.235 219.312 82.235C214.878 82.235 211.268 81.2533 208.482 79.29C205.758 77.3266 204.397 74.065 204.397 69.505V55.92ZM208.292 44.33V38.06H227.577C227.767 38.3133 227.957 38.725 228.147 39.295C228.337 39.865 228.432 40.4666 228.432 41.1C228.432 42.1133 228.178 42.905 227.672 43.475C227.165 44.045 226.468 44.33 225.582 44.33H208.292ZM211.997 58.77H204.397V24.38C204.713 24.2533 205.188 24.1266 205.822 24C206.518 23.81 207.247 23.715 208.007 23.715C209.337 23.715 210.318 24 210.952 24.57C211.648 25.0766 211.997 25.9316 211.997 27.135V58.77Z"
    fill="black" />
  <path
    d="M172.569 76.06C175.229 76.06 177.414 75.8067 179.124 75.3C180.898 74.73 182.164 74.1917 182.924 73.685V59.91L171.144 61.145C167.851 61.3983 165.413 62.1267 163.829 63.33C162.246 64.5333 161.454 66.275 161.454 68.555C161.454 70.8983 162.373 72.735 164.209 74.065C166.109 75.395 168.896 76.06 172.569 76.06ZM172.474 35.875C177.984 35.875 182.354 37.11 185.584 39.58C188.814 42.05 190.429 45.945 190.429 51.265V73.78C190.429 75.1733 190.144 76.25 189.574 77.01C189.068 77.7067 188.276 78.3717 187.199 79.005C185.679 79.8283 183.653 80.5883 181.119 81.285C178.586 81.9817 175.736 82.33 172.569 82.33C166.616 82.33 161.993 81.1583 158.699 78.815C155.469 76.4717 153.854 73.0833 153.854 68.65C153.854 64.5333 155.216 61.3983 157.939 59.245C160.726 57.0283 164.558 55.6983 169.434 55.255L182.924 53.925V51.265C182.924 48.0983 181.974 45.7867 180.074 44.33C178.174 42.8733 175.609 42.145 172.379 42.145C169.783 42.145 167.281 42.525 164.874 43.285C162.531 44.045 160.441 44.9 158.604 45.85C158.098 45.4067 157.623 44.9 157.179 44.33C156.799 43.6967 156.609 43.0633 156.609 42.43C156.609 40.7833 157.528 39.5167 159.364 38.63C161.074 37.7433 163.038 37.0783 165.254 36.635C167.534 36.1283 169.941 35.875 172.474 35.875Z"
    fill="black" />
  <path
    d="M121.086 55.92H128.686V69.03C128.686 71.5633 129.415 73.3683 130.871 74.445C132.328 75.4583 134.323 75.965 136.856 75.965C137.933 75.965 139.136 75.775 140.466 75.395C141.796 75.015 142.905 74.5716 143.791 74.065C144.171 74.445 144.52 74.92 144.836 75.49C145.153 76.06 145.311 76.725 145.311 77.485C145.311 78.8783 144.488 80.0183 142.841 80.905C141.195 81.7916 138.915 82.235 136.001 82.235C131.568 82.235 127.958 81.2533 125.171 79.29C122.448 77.3266 121.086 74.065 121.086 69.505V55.92ZM124.981 44.33V38.06H144.266C144.456 38.3133 144.646 38.725 144.836 39.295C145.026 39.865 145.121 40.4666 145.121 41.1C145.121 42.1133 144.868 42.905 144.361 43.475C143.855 44.045 143.158 44.33 142.271 44.33H124.981ZM128.686 58.77H121.086V24.38C121.403 24.2533 121.878 24.1266 122.511 24C123.208 23.81 123.936 23.715 124.696 23.715C126.026 23.715 127.008 24 127.641 24.57C128.338 25.0766 128.686 25.9316 128.686 27.135V58.77Z"
    fill="black" />
  <path
    d="M74.4833 63.9L74.1033 57.915L102.793 54.02C102.54 50.5367 101.337 47.6867 99.1833 45.47C97.03 43.19 94.0533 42.05 90.2533 42.05C86.3266 42.05 83.065 43.475 80.4683 46.325C77.935 49.1117 76.6683 53.1333 76.6683 58.39V60.48C77.1116 65.5467 78.7583 69.41 81.6083 72.07C84.5216 74.6667 88.48 75.965 93.4833 75.965C96.1433 75.965 98.55 75.5217 100.703 74.635C102.857 73.7483 104.567 72.7983 105.833 71.785C106.53 72.2283 107.068 72.7667 107.448 73.4C107.892 73.97 108.113 74.635 108.113 75.395C108.113 76.5983 107.417 77.7383 106.023 78.815C104.693 79.8283 102.888 80.6517 100.608 81.285C98.3916 81.9183 95.89 82.235 93.1033 82.235C88.2266 82.235 83.9833 81.3483 80.3733 79.575C76.8266 77.8017 74.0716 75.1733 72.1083 71.69C70.2083 68.1433 69.2583 63.8367 69.2583 58.77C69.2583 55.16 69.765 51.9617 70.7783 49.175C71.855 46.325 73.3116 43.9183 75.1483 41.955C77.0483 39.9917 79.2966 38.5033 81.8933 37.49C84.49 36.4133 87.3083 35.875 90.3483 35.875C94.2116 35.875 97.6 36.6983 100.513 38.345C103.49 39.9917 105.802 42.3033 107.448 45.28C109.158 48.1933 110.013 51.55 110.013 55.35C110.013 56.7433 109.697 57.7567 109.063 58.39C108.43 58.96 107.543 59.3083 106.403 59.435L74.4833 63.9Z"
    fill="black" />
  <path
    d="M29.8349 81H26.7949C26.3516 80.62 25.9716 80.145 25.6549 79.575C25.4016 78.9416 25.2749 78.3083 25.2749 77.675C25.2749 76.915 25.4332 76.2183 25.7499 75.585C26.1299 74.8883 26.5416 74.2233 26.9849 73.59L56.1499 37.11H59.0949C59.6016 37.5533 59.9816 38.06 60.2349 38.63C60.5516 39.2 60.7099 39.8333 60.7099 40.53C60.7099 41.2267 60.5516 41.8916 60.2349 42.525C59.9182 43.1583 59.4749 43.8233 58.9049 44.52L29.8349 81ZM58.0499 37.11V43.38H26.6999C26.5099 43.0633 26.3199 42.62 26.1299 42.05C25.9399 41.48 25.8449 40.8783 25.8449 40.245C25.8449 39.1683 26.0982 38.3767 26.6049 37.87C27.1116 37.3633 27.8082 37.11 28.6949 37.11H58.0499ZM27.3649 81V74.825H60.5199C60.7099 75.0783 60.8999 75.49 61.0899 76.06C61.2799 76.5667 61.3749 77.1683 61.3749 77.865C61.3749 78.8783 61.1216 79.67 60.6149 80.24C60.1082 80.7467 59.3799 81 58.4299 81H27.3649Z"
    fill="black" />
  <path fill-rule="evenodd" clip-rule="evenodd" d="M0 0H196V22.9512H194V2H2V100H194V80.6748H196V102H0V0Z"
    fill="black" />
</svg>