<svg width="206" height="42" viewBox="0 0 206 42" fill="none" xmlns="http://www.w3.org/2000/svg">
<g clip-path="url(#clip0_241_108)">
<path d="M203.941 9.1648C204.076 10.2771 204.155 11.5747 204.178 13.0578C204.2 14.5176 204.178 16.0007 204.11 17.5069C204.065 18.9899 203.963 20.4034 203.805 21.7474C203.647 23.0682 203.455 24.1342 203.23 24.9452C203.072 25.4318 202.88 25.9416 202.654 26.4746C202.451 26.9844 202.225 27.4478 201.977 27.8649C201.616 28.4906 201.175 29.0467 200.656 29.5334C200.137 29.9968 199.561 30.4023 198.929 30.7499C198.32 31.0743 197.665 31.3292 196.965 31.5146C196.288 31.7 195.611 31.8042 194.933 31.8274C193.737 31.8738 192.597 31.7 191.513 31.306C190.452 30.8889 189.47 30.2401 188.567 29.3596C187.89 28.6876 187.348 27.9692 186.942 27.2045C186.535 26.4398 186.219 25.6404 185.993 24.8062C185.768 23.9488 185.621 23.0682 185.553 22.1645C185.508 21.2608 185.486 20.3339 185.486 19.3838C185.486 18.9436 185.474 18.399 185.452 17.7502C185.452 17.0782 185.452 16.3946 185.452 15.6994C185.452 14.9811 185.452 14.2859 185.452 13.6139C185.452 12.9419 185.463 12.3742 185.486 11.9107C185.486 11.6095 185.486 11.2851 185.486 10.9375C185.486 10.5667 185.497 10.2076 185.519 9.85997C185.565 9.48921 185.632 9.14163 185.723 8.81721C185.813 8.46963 185.948 8.1568 186.129 7.87873C186.332 7.57749 186.614 7.35735 186.975 7.21832C187.337 7.07928 187.709 7.00977 188.093 7.00977C188.499 7.00977 188.883 7.09087 189.244 7.25308C189.606 7.41528 189.899 7.64701 190.125 7.94825C190.238 8.13363 190.317 8.31901 190.362 8.50439C190.407 8.68977 190.441 8.89832 190.463 9.13004C190.509 9.89473 190.531 10.7637 190.531 11.7369C190.554 12.7102 190.554 13.6602 190.531 14.5871C190.531 15.4909 190.52 16.3251 190.497 17.0898C190.475 17.8545 190.463 18.4222 190.463 18.7929C190.463 20.1833 190.531 21.4462 190.667 22.5816C190.802 23.6939 191.118 24.6208 191.615 25.3623C192.066 26.0343 192.597 26.463 193.206 26.6484C193.816 26.8338 194.425 26.8917 195.035 26.8222C195.599 26.7527 196.164 26.5441 196.728 26.1965C197.315 25.8258 197.778 25.2928 198.116 24.5976C198.252 24.3427 198.365 24.0531 198.455 23.7287C198.545 23.4042 198.613 23.103 198.658 22.8249C198.749 21.9444 198.828 20.9248 198.895 19.7662C198.963 18.5844 199.019 17.3794 199.065 16.1513C199.11 14.9231 199.132 13.7182 199.132 12.5364C199.132 11.3546 199.121 10.2887 199.098 9.33859C199.144 8.92149 199.268 8.53915 199.471 8.19156C199.652 7.89032 199.911 7.62383 200.25 7.39211C200.588 7.16039 201.051 7.04452 201.638 7.04452C202.112 7.0677 202.496 7.19514 202.79 7.42687C203.083 7.63542 203.32 7.86715 203.501 8.12204C203.704 8.42328 203.851 8.77087 203.941 9.1648Z" fill="white"/>
<path d="M182.719 30.333C182.742 30.5647 182.719 30.7848 182.652 30.9934C182.607 31.1324 182.539 31.2483 182.449 31.341C182.381 31.4337 182.29 31.5264 182.178 31.6191C181.974 31.7581 181.726 31.8855 181.433 32.0014C181.252 32.0477 181.071 32.0825 180.891 32.1057C180.733 32.152 180.563 32.152 180.383 32.1057C180.022 32.0825 179.706 31.9435 179.435 31.6886C179.051 31.3642 178.735 31.005 178.487 30.6111C178.374 30.4257 178.249 30.2171 178.114 29.9854C177.979 29.7537 177.854 29.5104 177.742 29.2555L173.983 21.9214C173.802 21.9214 173.622 21.933 173.441 21.9562C173.26 21.9562 173.08 21.9677 172.899 21.9909C172.425 22.0373 171.974 22.0488 171.545 22.0257C171.138 22.0025 170.709 22.0025 170.258 22.0257H169.614V28.317C169.614 28.5024 169.603 28.6762 169.581 28.8384C169.581 29.0006 169.581 29.1744 169.581 29.3597C169.581 29.4756 169.569 29.6262 169.547 29.8116C169.547 29.997 169.535 30.1708 169.513 30.333C169.468 30.5879 169.366 30.8544 169.208 31.1324C169.05 31.3873 168.836 31.6075 168.565 31.7928C168.091 32.0941 167.515 32.1752 166.838 32.0362C166.544 31.9666 166.262 31.8508 165.991 31.6886C165.901 31.6191 165.822 31.538 165.754 31.4453C165.686 31.3294 165.63 31.2135 165.585 31.0977C165.54 30.9818 165.494 30.8659 165.449 30.7501C165.427 30.6111 165.393 30.4836 165.348 30.3677C165.28 30.136 165.246 29.9159 165.246 29.7073V9.96443C165.246 9.8254 165.246 9.68636 165.246 9.54733C165.269 9.38512 165.291 9.24609 165.314 9.13023C165.336 8.87533 165.415 8.62043 165.551 8.36554C165.619 8.08747 165.731 7.8905 165.889 7.77464C166.025 7.6356 166.228 7.51974 166.499 7.42705C166.793 7.31119 167.21 7.26485 167.752 7.28802C168.768 7.31119 169.772 7.32278 170.766 7.32278C171.759 7.32278 172.752 7.34595 173.746 7.39229C174.4 7.43864 175.089 7.51974 175.811 7.63561C176.556 7.7283 177.245 7.90209 177.877 8.15698C178.283 8.31919 178.656 8.4814 178.994 8.6436C179.423 8.8985 179.762 9.14181 180.01 9.37354C180.801 10.1151 181.399 11.0072 181.805 12.0499C182.211 13.0927 182.415 14.1471 182.415 15.213C182.415 16.4643 182.121 17.6113 181.534 18.6541C180.97 19.6968 180.056 20.4731 178.791 20.9829C178.746 21.0293 178.678 21.064 178.588 21.0872C178.52 21.0872 178.464 21.0988 178.419 21.122L181.534 27.5523L181.839 28.1084C181.884 28.2011 181.941 28.3054 182.008 28.4213C182.076 28.5371 182.132 28.653 182.178 28.7688C182.245 28.8847 182.302 29.0122 182.347 29.1512C182.415 29.2902 182.482 29.4177 182.55 29.5335C182.618 29.858 182.674 30.1244 182.719 30.333ZM174.254 17.9589C174.66 17.9589 175.044 17.8894 175.405 17.7504C175.789 17.5882 176.127 17.3796 176.421 17.1247C176.737 16.8698 176.997 16.5802 177.2 16.2557C177.403 15.9082 177.516 15.5374 177.538 15.1435C177.629 13.9848 177.335 13.1275 176.658 12.5713C175.981 11.992 175.089 11.6792 173.983 11.6328C173.328 11.5865 172.606 11.5633 171.816 11.5633C171.048 11.5633 170.314 11.5633 169.614 11.5633C169.637 12.5134 169.637 13.4866 169.614 14.4831C169.614 15.4563 169.614 16.6149 169.614 17.9589H174.254Z" fill="white"/>
<path d="M162.632 31.8622C162.632 32.4647 162.418 32.9745 161.989 33.3916C161.582 33.8319 161.086 34.052 160.499 34.052C159.912 34.052 159.404 33.8319 158.975 33.3916C158.569 32.9745 158.365 32.4647 158.365 31.8622C158.365 31.2598 158.569 30.7384 158.975 30.2981C159.404 29.8578 159.912 29.6377 160.499 29.6377C161.086 29.6377 161.582 29.8578 161.989 30.2981C162.418 30.7384 162.632 31.2598 162.632 31.8622Z" fill="white"/>
<path d="M155.711 8.95646C155.734 9.11867 155.745 9.26929 155.745 9.40833C155.745 9.54736 155.745 9.6864 155.745 9.82543V11.2505L155.542 29.2903V29.6378C155.542 29.7769 155.508 29.9854 155.44 30.2635C155.418 30.3794 155.384 30.5068 155.339 30.6458C155.294 30.7617 155.249 30.8892 155.203 31.0282C155.091 31.3063 154.933 31.5148 154.729 31.6538C154.549 31.8392 154.255 31.9667 153.849 32.0362C153.217 32.1752 152.641 32.1173 152.122 31.8624C151.828 31.677 151.625 31.4453 151.512 31.1672C151.467 31.1209 151.422 31.0514 151.377 30.9587C151.377 30.9123 151.354 30.8428 151.309 30.7501C151.264 30.6343 151.23 30.5184 151.208 30.4025C151.185 30.2635 151.162 30.1245 151.14 29.9854C151.14 29.8696 151.129 29.7537 151.106 29.6378C151.106 29.522 151.095 29.4061 151.072 29.2903C151.027 29.1744 151.004 29.0817 151.004 29.0122C151.004 28.9195 151.004 28.8152 151.004 28.6994C151.05 28.6067 151.072 28.4329 151.072 28.178L151.106 25.4321L151.14 21.0525H149.311L142.437 21.0872L142.369 29.2903V29.6378C142.369 29.7769 142.335 29.9854 142.268 30.2635C142.245 30.3794 142.211 30.5068 142.166 30.6458C142.121 30.7617 142.076 30.8892 142.031 31.0282C141.918 31.3063 141.76 31.5148 141.557 31.6538C141.376 31.8392 141.083 31.9667 140.676 32.0362C140.044 32.1752 139.468 32.1173 138.949 31.8624C138.723 31.7234 138.509 31.4916 138.306 31.1672C138.261 31.0745 138.238 31.005 138.238 30.9587L138.136 30.7501C138.091 30.6343 138.057 30.5184 138.035 30.4025C138.012 30.2635 137.99 30.1245 137.967 29.9854C137.967 29.8696 137.956 29.7537 137.933 29.6378C137.911 29.522 137.888 29.4061 137.866 29.2903C137.843 29.1049 137.843 28.9079 137.866 28.6994V28.178L137.899 25.4321L137.967 20.3225C137.99 19.581 138.001 18.8163 138.001 18.0285C138.001 17.2406 138.001 16.4296 138.001 15.5954C137.978 14.7612 137.967 14.0196 137.967 13.3708C137.99 12.722 138.024 11.9921 138.069 11.181V11.042C138.091 10.8103 138.103 10.5785 138.103 10.3468C138.103 10.0919 138.114 9.83702 138.136 9.58212C138.159 9.3504 138.193 9.13026 138.238 8.92171C138.306 8.68998 138.396 8.45826 138.509 8.22653C138.577 8.04115 138.667 7.89053 138.78 7.77467C138.893 7.63564 139.028 7.50819 139.186 7.39233C139.547 7.20695 139.909 7.11426 140.27 7.11426C140.45 7.11426 140.608 7.12584 140.744 7.14902C140.879 7.14902 141.015 7.1606 141.15 7.18377C141.421 7.20695 141.681 7.34598 141.929 7.60088C142.11 7.76308 142.234 7.94846 142.302 8.15702C142.414 8.45826 142.482 8.72474 142.505 8.95646C142.527 9.11867 142.539 9.26929 142.539 9.40833C142.539 9.54736 142.539 9.6864 142.539 9.82543V11.2505L142.471 16.9857C142.652 16.9857 142.855 16.9857 143.08 16.9857C143.329 16.9857 143.611 16.9741 143.927 16.9509C145.101 16.9509 146.264 16.9625 147.415 16.9857C148.589 17.0089 149.819 17.0205 151.106 17.0205H151.14C151.14 15.9777 151.14 14.9813 151.14 14.0312C151.162 13.0812 151.196 12.0847 151.241 11.042C151.241 10.8103 151.241 10.5785 151.241 10.3468C151.264 10.0919 151.287 9.83702 151.309 9.58212C151.332 9.3504 151.366 9.13026 151.411 8.92171C151.478 8.68998 151.569 8.45826 151.682 8.22653C151.727 8.04115 151.806 7.89053 151.919 7.77467C152.054 7.63564 152.212 7.50819 152.393 7.39233C152.709 7.20695 153.059 7.11426 153.443 7.11426C153.623 7.11426 153.781 7.12584 153.917 7.14902C154.075 7.14902 154.21 7.1606 154.323 7.18377C154.639 7.23012 154.899 7.36915 155.102 7.60088C155.282 7.71674 155.407 7.90212 155.474 8.15702C155.519 8.29605 155.553 8.43508 155.576 8.57412C155.621 8.68998 155.666 8.81743 155.711 8.95646Z" fill="white"/>
<path d="M134.88 26.0226C135.173 26.6946 135.185 27.355 134.914 28.0039C134.643 28.6295 134.214 29.2088 133.627 29.7418C133.04 30.2748 132.363 30.7382 131.595 31.1322C130.85 31.5261 130.139 31.8042 129.462 31.9664C128.717 32.1286 127.927 32.1981 127.092 32.1749C126.279 32.1749 125.455 32.0706 124.62 31.8621C123.807 31.6767 123.005 31.3986 122.215 31.0279C121.448 30.6339 120.737 30.1589 120.082 29.6028C119.292 28.9308 118.671 28.1313 118.219 27.2044C117.79 26.2544 117.474 25.2464 117.271 24.1804C117.068 23.1145 116.955 22.0486 116.933 20.9826C116.933 19.8935 116.966 18.8739 117.034 17.9239C117.102 17.0665 117.271 16.1744 117.542 15.2475C117.813 14.3206 118.186 13.4168 118.66 12.5363C119.156 11.6326 119.743 10.7984 120.421 10.0337C121.12 9.26898 121.933 8.62015 122.859 8.08719C123.558 7.67008 124.337 7.39201 125.195 7.25298C126.076 7.09077 126.956 7.05601 127.837 7.1487C128.74 7.21822 129.586 7.41519 130.376 7.7396C131.189 8.04084 131.877 8.45794 132.442 8.99091C132.803 9.31532 133.176 9.76718 133.559 10.3465C133.966 10.9258 134.259 11.5167 134.44 12.1192C134.62 12.7217 134.62 13.2894 134.44 13.8224C134.282 14.3322 133.83 14.6797 133.085 14.8651C132.769 14.9578 132.487 14.981 132.239 14.9346C131.99 14.8651 131.765 14.7608 131.561 14.6218C131.358 14.4596 131.166 14.2742 130.986 14.0657C130.805 13.8571 130.636 13.6486 130.478 13.44C129.936 12.768 129.304 12.3162 128.581 12.0844C127.859 11.8295 127.137 11.7716 126.414 11.9106C125.714 12.0265 125.048 12.3277 124.416 12.8144C123.807 13.2778 123.333 13.8803 122.994 14.6218C122.633 15.4097 122.339 16.2786 122.114 17.2287C121.91 18.1556 121.798 19.1057 121.775 20.0789C121.752 21.029 121.831 21.9559 122.012 22.8596C122.215 23.7633 122.554 24.5628 123.028 25.2579C123.389 25.8141 123.829 26.2659 124.349 26.6135C124.89 26.9611 125.466 27.2044 126.076 27.3435C126.685 27.4825 127.295 27.5057 127.904 27.413C128.536 27.3203 129.146 27.1117 129.733 26.7873C129.913 26.6946 130.105 26.5672 130.309 26.405C130.534 26.2196 130.76 26.0342 130.986 25.8488C131.212 25.6635 131.437 25.4897 131.663 25.3275C131.911 25.1653 132.171 25.0494 132.442 24.9799C132.848 24.8408 133.288 24.8524 133.763 25.0146C134.259 25.1768 134.632 25.5128 134.88 26.0226Z" fill="white"/>
<path d="M102.953 11.424L102.885 16.8811H104.24C105.165 16.8579 105.989 16.8463 106.712 16.8463C107.434 16.8463 108.236 16.8579 109.116 16.8811H109.285C109.556 16.8811 109.816 16.8927 110.064 16.9158C110.335 16.9158 110.595 16.9158 110.843 16.9158C111.114 16.939 111.374 16.9853 111.622 17.0549C111.87 17.1012 112.119 17.1591 112.367 17.2287C112.751 17.3677 113.067 17.5762 113.315 17.8543C113.541 18.1556 113.654 18.4916 113.654 18.8623C113.654 18.9782 113.654 19.1172 113.654 19.2794C113.654 19.4184 113.631 19.5459 113.586 19.6618C113.541 19.9167 113.394 20.1484 113.146 20.3569C113.033 20.5191 112.818 20.635 112.502 20.7045C112.209 20.7972 111.915 20.8551 111.622 20.8783C111.306 20.9478 110.99 20.9826 110.674 20.9826H109.082L102.818 21.0173L102.75 27.83L109.489 27.8996H111.08C111.261 27.8996 111.43 27.8996 111.588 27.8996C111.746 27.8996 111.893 27.9111 112.028 27.9343C112.209 27.9807 112.367 28.0154 112.502 28.0386C112.66 28.0386 112.807 28.0618 112.943 28.1081C113.213 28.2008 113.439 28.3282 113.62 28.4904C113.846 28.7222 113.992 28.9655 114.06 29.2204C114.083 29.3362 114.094 29.4637 114.094 29.6027C114.116 29.7186 114.116 29.846 114.094 29.9851C114.094 30.3558 113.981 30.6918 113.755 30.9931C113.484 31.3175 113.168 31.526 112.807 31.6187C112.333 31.8273 111.814 31.9316 111.249 31.9316C111.001 31.9547 110.741 31.9663 110.471 31.9663C110.2 31.9663 109.94 31.9779 109.692 32.0011H109.489C107.728 32.0474 105.899 32.0474 104.003 32.0011C103.551 32.0011 103.19 31.9895 102.919 31.9663C102.648 31.9663 102.4 31.9663 102.174 31.9663C101.971 31.9663 101.756 31.9663 101.531 31.9663C101.305 31.9663 101.011 31.9663 100.65 31.9663C100.131 32.0127 99.7021 31.92 99.3635 31.6882C99.1151 31.526 98.9233 31.3059 98.7878 31.0278C98.7201 30.9583 98.6862 30.8888 98.6862 30.8193C98.6636 30.7729 98.6411 30.7382 98.6185 30.715C98.5959 30.6918 98.5733 30.6571 98.5508 30.6107C98.5056 30.4949 98.4717 30.379 98.4492 30.2631C98.4266 30.1241 98.4153 29.9967 98.4153 29.8808C98.3927 29.7649 98.3702 29.6491 98.3476 29.5332C98.3476 29.4173 98.3363 29.3015 98.3137 29.1856V28.6295C98.3137 28.5368 98.3137 28.4441 98.3137 28.3514C98.3363 28.2587 98.3476 28.166 98.3476 28.0733V25.3622L98.4153 20.3569V15.734C98.4153 14.8998 98.4153 14.1583 98.4153 13.5095C98.4379 12.8607 98.4605 12.1539 98.483 11.3892V11.2154C98.5056 10.9605 98.5169 10.7288 98.5169 10.5202C98.5395 10.2885 98.5508 10.0568 98.5508 9.82507C98.5733 9.36162 98.6975 8.90976 98.9233 8.46948C99.0136 8.2841 99.1039 8.12189 99.1942 7.98286C99.307 7.84383 99.4538 7.72796 99.6344 7.63527C99.973 7.42672 100.323 7.32245 100.684 7.32245C100.865 7.32245 101 7.33403 101.09 7.3572V7.32245C101.497 7.32245 101.824 7.32245 102.073 7.32245C102.321 7.32245 102.558 7.32245 102.784 7.32245C103.032 7.32245 103.292 7.32245 103.562 7.32245C103.833 7.29927 104.206 7.28769 104.68 7.28769C105.583 7.26452 106.441 7.25293 107.254 7.25293C108.066 7.25293 108.902 7.26452 109.759 7.28769H109.895C110.143 7.31086 110.403 7.32245 110.674 7.32245C110.945 7.32245 111.204 7.33403 111.453 7.3572C111.701 7.3572 111.949 7.39196 112.198 7.46148C112.446 7.50783 112.694 7.57734 112.943 7.67003C113.326 7.78589 113.642 7.98286 113.891 8.26093C114.094 8.58534 114.195 8.90976 114.195 9.23417C114.195 9.3732 114.195 9.51224 114.195 9.65127C114.195 9.76714 114.173 9.883 114.128 9.99886C114.105 10.2306 113.97 10.4739 113.721 10.7288C113.631 10.7751 113.53 10.8331 113.417 10.9026C113.326 10.9721 113.213 11.03 113.078 11.0764C112.943 11.1227 112.796 11.1575 112.638 11.1807C112.502 11.1807 112.367 11.1922 112.231 11.2154C112.051 11.2618 111.881 11.2849 111.723 11.2849C111.588 11.2849 111.43 11.2849 111.249 11.2849H109.726L102.953 11.3197V11.424Z" fill="white"/>
<path d="M95.2466 8.33074C95.4949 8.63198 95.6191 8.94481 95.6191 9.26922C95.6191 9.40825 95.6078 9.55887 95.5852 9.72108C95.5852 9.86012 95.5739 9.98756 95.5514 10.1034C95.4836 10.3583 95.3369 10.6016 95.1111 10.8334C94.9305 10.9724 94.6822 11.0767 94.3661 11.1462C94.2081 11.1925 94.0501 11.2273 93.8921 11.2505C93.734 11.2736 93.5647 11.3084 93.3841 11.3547C93.2261 11.3779 93.0681 11.3895 92.91 11.3895C92.752 11.3895 92.5827 11.3895 92.4021 11.3895H90.6751C90.2687 11.4127 89.8624 11.4243 89.456 11.4243C89.0722 11.4243 88.6884 11.4243 88.3047 11.4243C88.3272 12.1426 88.3385 12.9189 88.3385 13.7531C88.3385 14.5641 88.3272 15.5142 88.3047 16.6033C88.3047 17.6924 88.2934 18.9553 88.2708 20.392C88.2708 21.8287 88.2708 23.4971 88.2708 25.3972V28.0389C88.2708 28.2706 88.2821 28.4444 88.3047 28.5603C88.3047 28.6529 88.3047 28.7456 88.3047 28.8383C88.3047 28.9078 88.2934 29.0005 88.2708 29.1164C88.2257 29.3249 88.1918 29.5683 88.1692 29.8463C88.1692 29.9622 88.1579 30.078 88.1354 30.1939C88.1128 30.2866 88.0789 30.3909 88.0338 30.5067C87.9435 30.5994 87.8983 30.6689 87.8983 30.7153L87.7967 30.9238C87.6838 31.1556 87.4694 31.3757 87.1533 31.5843C86.6567 31.8391 86.1036 31.8971 85.494 31.758C85.1103 31.7117 84.8168 31.6074 84.6136 31.4452C84.4104 31.2367 84.2637 31.0281 84.1734 30.8196C84.0379 30.5647 83.9589 30.3214 83.9363 30.0896C83.8686 29.8811 83.8347 29.6609 83.8347 29.4292V11.5633C83.6993 11.5633 83.4171 11.5633 82.9882 11.5633C82.5592 11.5633 82.0964 11.5633 81.5998 11.5633C81.1257 11.5401 80.6742 11.5169 80.2453 11.4938C79.8163 11.4706 79.5229 11.4474 79.3648 11.4243C79.2294 11.4011 79.0149 11.3663 78.7214 11.32C78.4505 11.2736 78.2248 11.2273 78.0442 11.1809C77.5701 11.0419 77.1976 10.8218 76.9267 10.5205C76.6784 10.2193 76.5542 9.88329 76.5542 9.51253C76.5542 9.37349 76.5542 9.23446 76.5542 9.09543C76.5542 8.95639 76.5768 8.82894 76.6219 8.71308C76.6897 8.43501 76.8703 8.20329 77.1637 8.01791C77.254 7.94839 77.3895 7.86729 77.5701 7.7746C77.7733 7.65874 77.9652 7.57763 78.1458 7.53129C78.4167 7.4386 78.7553 7.36908 79.1617 7.32274C79.3423 7.29956 79.5229 7.28798 79.7035 7.28798C79.8841 7.28798 80.076 7.28798 80.2791 7.28798C81.0693 7.28798 81.8143 7.28798 82.5141 7.28798C83.2365 7.28798 83.9928 7.27639 84.7829 7.25322C86.0923 7.23005 87.3904 7.23005 88.6772 7.25322C89.9865 7.25322 91.2846 7.27639 92.5714 7.32274C92.8649 7.34591 93.1471 7.38067 93.418 7.42701C93.6889 7.47336 93.9598 7.55446 94.2307 7.67032C94.4339 7.73984 94.6258 7.83253 94.8064 7.94839C94.987 8.04108 95.1337 8.16853 95.2466 8.33074Z" fill="white"/>
<path d="M78.1681 29.4984C78.1907 29.6375 78.202 29.7765 78.202 29.9156C78.2246 30.0314 78.2359 30.1704 78.2359 30.3327C78.2359 30.6107 78.1569 30.8656 77.9988 31.0973C77.9311 31.2132 77.8408 31.3291 77.7279 31.4449C77.615 31.5376 77.4796 31.6187 77.3216 31.6882C76.7572 32.0127 76.1589 32.1285 75.5268 32.0358C75.2108 31.9431 74.9286 31.7925 74.6803 31.584C74.6351 31.5376 74.6012 31.5145 74.5787 31.5145C74.5561 31.4913 74.5335 31.4565 74.5109 31.4102C74.4884 31.387 74.4658 31.3638 74.4432 31.3407C74.4206 31.2943 74.3868 31.2596 74.3416 31.2364C74.2287 31.1205 74.1384 31.0162 74.0707 30.9236C74.003 30.8077 73.9353 30.6918 73.8675 30.576C73.8224 30.4601 73.766 30.3558 73.6982 30.2631C73.6531 30.1473 73.5966 30.0314 73.5289 29.9156C73.4838 29.8229 73.4386 29.7418 73.3935 29.6722C73.3483 29.5796 73.3144 29.4869 73.2919 29.3942C73.2016 29.1856 73.1451 29.0002 73.1226 28.838L72.4114 27.1349C70.8537 27.1349 69.296 27.1464 67.7383 27.1696C66.2032 27.1696 64.6568 27.158 63.0991 27.1349L62.388 28.838C62.3428 28.9307 62.309 29.0234 62.2864 29.1161C62.2864 29.2088 62.2638 29.3015 62.2187 29.3942C62.1735 29.4869 62.1284 29.5796 62.0832 29.6722C62.0606 29.7418 62.0268 29.8229 61.9816 29.9156C61.9139 30.0314 61.8462 30.1473 61.7784 30.2631C61.7333 30.3558 61.6769 30.4601 61.6091 30.576C61.564 30.6918 61.5075 30.8077 61.4398 30.9236C61.3721 31.0162 61.2818 31.1205 61.1689 31.2364C61.1238 31.2596 61.0899 31.2943 61.0673 31.3407C61.0447 31.3638 61.0222 31.387 60.9996 31.4102C60.977 31.4565 60.9544 31.4913 60.9319 31.5145C60.9093 31.5145 60.8754 31.5376 60.8303 31.584C60.5819 31.7925 60.2998 31.9431 59.9837 32.0358C59.3516 32.1285 58.7533 32.0127 58.189 31.6882C58.0309 31.6187 57.8955 31.5376 57.7826 31.4449C57.6697 31.3291 57.5794 31.2132 57.5117 31.0973C57.3537 30.8656 57.2747 30.6107 57.2747 30.3327C57.2747 30.1704 57.2747 30.0314 57.2747 29.9156C57.2972 29.7765 57.3198 29.6375 57.3424 29.4984C57.3875 29.2899 57.444 29.0813 57.5117 28.8728C57.5794 28.6642 57.6133 28.56 57.6133 28.56L64.6568 10.7635L64.86 10.2074C64.9051 10.0684 64.9616 9.94093 65.0293 9.82507C65.097 9.7092 65.1535 9.57017 65.1986 9.40796C65.3115 9.10672 65.4356 8.84024 65.5711 8.60852C65.6388 8.46948 65.7178 8.34203 65.8081 8.22617C65.8984 8.11031 65.9887 7.99445 66.079 7.87858C66.2145 7.6932 66.4064 7.54258 66.6547 7.42672C66.9708 7.31086 67.332 7.25293 67.7383 7.25293C68.1673 7.25293 68.5398 7.31086 68.8558 7.42672C69.1041 7.54258 69.296 7.6932 69.4315 7.87858C69.5895 8.08713 69.7588 8.33045 69.9394 8.60852C70.0749 8.84024 70.199 9.10672 70.3119 9.40796C70.3571 9.57017 70.4135 9.7092 70.4812 9.82507C70.549 9.94093 70.6054 10.0684 70.6506 10.2074L70.8537 10.7635L77.8972 28.56C77.8972 28.56 77.9311 28.6642 77.9988 28.8728C78.0665 29.0813 78.123 29.2899 78.1681 29.4984ZM70.1426 20.9826C69.8491 20.3106 69.5444 19.6154 69.2283 18.8971C68.9348 18.1787 68.6188 17.4488 68.2801 16.7073C68.1898 16.4987 68.0995 16.2902 68.0092 16.0816C67.9189 15.8499 67.8286 15.6298 67.7383 15.4212C67.6706 15.6298 67.5916 15.8499 67.5013 16.0816C67.411 16.2902 67.3207 16.4987 67.2304 16.7073C66.8918 17.4488 66.5644 18.1787 66.2484 18.8971C65.9549 19.6154 65.6614 20.3106 65.3679 20.9826L64.7584 22.512H70.7521L70.1426 20.9826Z" fill="white"/>
<path d="M58.6057 8.33074C58.854 8.63198 58.9782 8.94481 58.9782 9.26922C58.9782 9.40825 58.9669 9.55887 58.9443 9.72108C58.9443 9.86012 58.9331 9.98756 58.9105 10.1034C58.8428 10.3583 58.696 10.6016 58.4703 10.8334C58.2897 10.9724 58.0413 11.0767 57.7253 11.1462C57.5672 11.1925 57.4092 11.2273 57.2512 11.2505C57.0932 11.2736 56.9239 11.3084 56.7432 11.3547C56.5852 11.3779 56.4272 11.3895 56.2692 11.3895C56.1111 11.3895 55.9418 11.3895 55.7612 11.3895H54.0342C53.6279 11.4127 53.2215 11.4243 52.8151 11.4243C52.4314 11.4243 52.0476 11.4243 51.6638 11.4243C51.6864 12.1426 51.6977 12.9189 51.6977 13.7531C51.6977 14.5641 51.6864 15.5142 51.6638 16.6033C51.6638 17.6924 51.6525 18.9553 51.6299 20.392C51.6299 21.8287 51.6299 23.4971 51.6299 25.3972V28.0389C51.6299 28.2706 51.6412 28.4444 51.6638 28.5603C51.6638 28.6529 51.6638 28.7456 51.6638 28.8383C51.6638 28.9078 51.6525 29.0005 51.6299 29.1164C51.5848 29.3249 51.5509 29.5683 51.5283 29.8463C51.5283 29.9622 51.5171 30.078 51.4945 30.1939C51.4719 30.2866 51.438 30.3909 51.3929 30.5067C51.3026 30.5994 51.2574 30.6689 51.2574 30.7153L51.1559 30.9238C51.043 31.1556 50.8285 31.3757 50.5125 31.5843C50.0158 31.8391 49.4627 31.8971 48.8532 31.758C48.4694 31.7117 48.1759 31.6074 47.9727 31.4452C47.7695 31.2367 47.6228 31.0281 47.5325 30.8196C47.3971 30.5647 47.318 30.3214 47.2955 30.0896C47.2277 29.8811 47.1939 29.6609 47.1939 29.4292V11.5633C47.0584 11.5633 46.7762 11.5633 46.3473 11.5633C45.9184 11.5633 45.4556 11.5633 44.9589 11.5633C44.4848 11.5401 44.0333 11.5169 43.6044 11.4938C43.1755 11.4706 42.882 11.4474 42.724 11.4243C42.5885 11.4011 42.374 11.3663 42.0806 11.32C41.8097 11.2736 41.5839 11.2273 41.4033 11.1809C40.9292 11.0419 40.5567 10.8218 40.2858 10.5205C40.0375 10.2193 39.9133 9.88329 39.9133 9.51253C39.9133 9.37349 39.9133 9.23446 39.9133 9.09543C39.9133 8.95639 39.9359 8.82894 39.9811 8.71308C40.0488 8.43501 40.2294 8.20329 40.5229 8.01791C40.6132 7.94839 40.7486 7.86729 40.9292 7.7746C41.1324 7.65874 41.3243 7.57763 41.5049 7.53129C41.7758 7.4386 42.1144 7.36908 42.5208 7.32274C42.7014 7.29956 42.882 7.28798 43.0626 7.28798C43.2432 7.28798 43.4351 7.28798 43.6383 7.28798C44.4284 7.28798 45.1734 7.28798 45.8732 7.28798C46.5956 7.28798 47.3519 7.27639 48.142 7.25322C49.4514 7.23005 50.7495 7.23005 52.0363 7.25322C53.3457 7.25322 54.6437 7.27639 55.9305 7.32274C56.224 7.34591 56.5062 7.38067 56.7771 7.42701C57.048 7.47336 57.3189 7.55446 57.5898 7.67032C57.793 7.73984 57.9849 7.83253 58.1655 7.94839C58.3461 8.04108 58.4928 8.16853 58.6057 8.33074Z" fill="white"/>
<path d="M26.629 11.424L26.5613 16.8811H27.9158C28.8414 16.8579 29.6654 16.8463 30.3878 16.8463C31.1102 16.8463 31.9116 16.8579 32.792 16.8811H32.9614C33.2323 16.8811 33.4919 16.8927 33.7402 16.9158C34.0111 16.9158 34.2707 16.9158 34.5191 16.9158C34.79 16.939 35.0496 16.9853 35.2979 17.0549C35.5462 17.1012 35.7946 17.1591 36.0429 17.2287C36.4267 17.3677 36.7427 17.5762 36.9911 17.8543C37.2168 18.1556 37.3297 18.4916 37.3297 18.8623C37.3297 18.9782 37.3297 19.1172 37.3297 19.2794C37.3297 19.4184 37.3071 19.5459 37.262 19.6618C37.2168 19.9167 37.0701 20.1484 36.8217 20.3569C36.7089 20.5191 36.4944 20.635 36.1783 20.7045C35.8849 20.7972 35.5914 20.8551 35.2979 20.8783C34.9819 20.9478 34.6658 20.9826 34.3497 20.9826H32.7582L26.4935 21.0173L26.4258 27.83L33.1645 27.8996H34.7561C34.9367 27.8996 35.106 27.8996 35.264 27.8996C35.4221 27.8996 35.5688 27.9111 35.7043 27.9343C35.8849 27.9807 36.0429 28.0154 36.1783 28.0386C36.3364 28.0386 36.4831 28.0618 36.6186 28.1081C36.8895 28.2008 37.1152 28.3282 37.2958 28.4904C37.5216 28.7222 37.6683 28.9655 37.736 29.2204C37.7586 29.3362 37.7699 29.4637 37.7699 29.6027C37.7925 29.7186 37.7925 29.846 37.7699 29.9851C37.7699 30.3558 37.657 30.6918 37.4313 30.9931C37.1604 31.3175 36.8443 31.526 36.4831 31.6187C36.009 31.8273 35.4898 31.9316 34.9254 31.9316C34.6771 31.9547 34.4175 31.9663 34.1466 31.9663C33.8757 31.9663 33.616 31.9779 33.3677 32.0011H33.1645C31.4037 32.0474 29.5751 32.0474 27.6787 32.0011C27.2272 32.0011 26.866 31.9895 26.5951 31.9663C26.3242 31.9663 26.0759 31.9663 25.8501 31.9663C25.647 31.9663 25.4325 31.9663 25.2067 31.9663C24.981 31.9663 24.6875 31.9663 24.3263 31.9663C23.8071 32.0127 23.3781 31.92 23.0395 31.6882C22.7912 31.526 22.5993 31.3059 22.4638 31.0278C22.3961 30.9583 22.3622 30.8888 22.3622 30.8193C22.3397 30.7729 22.3171 30.7382 22.2945 30.715C22.2719 30.6918 22.2494 30.6571 22.2268 30.6107C22.1816 30.4949 22.1478 30.379 22.1252 30.2631C22.1026 30.1241 22.0913 29.9967 22.0913 29.8808C22.0688 29.7649 22.0462 29.6491 22.0236 29.5332C22.0236 29.4173 22.0123 29.3015 21.9897 29.1856V28.6295C21.9897 28.5368 21.9897 28.4441 21.9897 28.3514C22.0123 28.2587 22.0236 28.166 22.0236 28.0733V25.3622L22.0913 20.3569V15.734C22.0913 14.8998 22.0913 14.1583 22.0913 13.5095C22.1139 12.8607 22.1365 12.1539 22.1591 11.3892V11.2154C22.1816 10.9605 22.1929 10.7288 22.1929 10.5202C22.2155 10.2885 22.2268 10.0568 22.2268 9.82507C22.2494 9.36162 22.3735 8.90976 22.5993 8.46948C22.6896 8.2841 22.7799 8.12189 22.8702 7.98286C22.9831 7.84383 23.1298 7.72796 23.3104 7.63527C23.649 7.42672 23.999 7.32245 24.3602 7.32245C24.5408 7.32245 24.6762 7.33403 24.7665 7.3572V7.32245C25.1729 7.32245 25.5002 7.32245 25.7485 7.32245C25.9969 7.32245 26.2339 7.32245 26.4597 7.32245C26.708 7.32245 26.9676 7.32245 27.2385 7.32245C27.5094 7.29927 27.8819 7.28769 28.356 7.28769C29.259 7.26452 30.1169 7.25293 30.9296 7.25293C31.7423 7.25293 32.5776 7.26452 33.4354 7.28769H33.5709C33.8192 7.31086 34.0788 7.32245 34.3497 7.32245C34.6207 7.32245 34.8803 7.33403 35.1286 7.3572C35.3769 7.3572 35.6253 7.39196 35.8736 7.46148C36.1219 7.50783 36.3702 7.57734 36.6186 7.67003C37.0023 7.78589 37.3184 7.98286 37.5667 8.26093C37.7699 8.58534 37.8715 8.90976 37.8715 9.23417C37.8715 9.3732 37.8715 9.51224 37.8715 9.65127C37.8715 9.76714 37.8489 9.883 37.8038 9.99886C37.7812 10.2306 37.6457 10.4739 37.3974 10.7288C37.3071 10.7751 37.2055 10.8331 37.0927 10.9026C37.0024 10.9721 36.8895 11.03 36.754 11.0764C36.6186 11.1227 36.4718 11.1575 36.3138 11.1807C36.1784 11.1807 36.0429 11.1922 35.9074 11.2154C35.7268 11.2618 35.5575 11.2849 35.3995 11.2849C35.264 11.2849 35.106 11.2849 34.9254 11.2849H33.4016L26.629 11.3197V11.424Z" fill="white"/>
<path d="M17.8796 12.3625C17.5636 12.8491 17.2362 13.3242 16.8976 13.7876C16.559 14.2511 16.2316 14.7145 15.9156 15.1779C14.4933 17.2635 13.0711 19.3374 11.6488 21.3997C10.2492 23.4621 8.84951 25.5476 7.44983 27.6563C7.78847 27.6563 8.04808 27.6563 8.22868 27.6563C8.40929 27.6563 8.55603 27.6563 8.6689 27.6563C8.80436 27.6563 8.9511 27.6563 9.10912 27.6563C9.26715 27.6563 9.50419 27.6679 9.82025 27.6911C10.1363 27.6911 10.5652 27.6911 11.107 27.6911C11.6714 27.6911 12.4164 27.6911 13.342 27.6911C13.929 27.6911 14.5046 27.6911 15.069 27.6911C15.656 27.6911 16.2429 27.7142 16.8299 27.7606C16.9428 27.7837 17.0669 27.8069 17.2024 27.8301C17.3378 27.8301 17.462 27.8533 17.5749 27.8996L17.7781 28.0039C17.7781 28.0039 17.8458 28.0271 17.9812 28.0734C18.2521 28.2356 18.4779 28.421 18.6585 28.6295C18.9745 29.093 19.0648 29.6144 18.9294 30.1937C18.9068 30.3559 18.8504 30.5065 18.7601 30.6455C18.6924 30.7614 18.6133 30.8657 18.523 30.9584C18.3424 31.1437 18.128 31.2712 17.8796 31.3407C17.6313 31.4797 17.3717 31.5608 17.1008 31.584C16.9879 31.6072 16.875 31.6304 16.7622 31.6535C16.6719 31.6535 16.5703 31.6535 16.4574 31.6535H4.16512C4.02967 31.6535 3.89422 31.6535 3.75877 31.6535C3.62331 31.6535 3.48786 31.6419 3.35241 31.6188C3.28468 31.5956 3.21696 31.584 3.14923 31.584C3.10408 31.584 3.05893 31.5724 3.01378 31.5493C2.92348 31.5261 2.83318 31.5145 2.74288 31.5145C2.67515 31.4913 2.58485 31.4682 2.47197 31.445C2.22364 31.3059 2.03175 31.1785 1.8963 31.0626C1.6254 30.8541 1.47866 30.6339 1.45608 30.4022V30.3675C1.41093 30.2516 1.37707 30.1473 1.35449 30.0546C1.35449 29.962 1.36578 29.8461 1.38836 29.7071C1.38836 29.6839 1.37707 29.6723 1.35449 29.6723C1.35449 29.6491 1.35449 29.6144 1.35449 29.568C1.35449 29.429 1.37707 29.3015 1.42222 29.1857C1.46737 29.0466 1.51252 28.9076 1.55767 28.7686C1.60282 28.6991 1.63668 28.6295 1.65926 28.56C1.70441 28.4673 1.76085 28.3862 1.82857 28.3167C1.87372 28.2008 1.93016 28.085 1.99789 27.9691C2.08819 27.8533 2.15592 27.7374 2.20107 27.6215C2.24622 27.5288 2.29137 27.4362 2.33652 27.3435C2.40425 27.2276 2.46068 27.1349 2.50583 27.0654C2.59614 26.9727 2.66386 26.8916 2.70901 26.8221C2.77674 26.7294 2.83318 26.6367 2.87833 26.544L4.6392 24.0066L7.78846 19.3142C8.28512 18.6422 8.77049 17.9471 9.24457 17.2287C9.74123 16.4872 10.2492 15.7225 10.7684 14.9346C11.1522 14.3322 11.5021 13.8108 11.8182 13.3705C12.1342 12.9071 12.4728 12.4088 12.8341 11.8759C12.0439 11.8759 11.2989 11.8759 10.5991 11.8759C9.92183 11.8759 9.24458 11.8759 8.56731 11.8759C7.89005 11.8527 7.17893 11.8411 6.43394 11.8411C5.71153 11.8179 4.91011 11.7948 4.02967 11.7716C3.71362 11.7484 3.34112 11.7021 2.91219 11.6326C2.50583 11.5399 2.1672 11.3661 1.8963 11.1112C1.64797 10.8795 1.50123 10.6362 1.45608 10.3813C1.38836 10.1495 1.35449 9.87147 1.35449 9.54705C1.35449 9.17629 1.45608 8.85188 1.65926 8.57381C1.88501 8.27257 2.1672 8.05243 2.50583 7.9134C2.97992 7.72802 3.44271 7.63533 3.89422 7.63533C4.14255 7.61216 4.39088 7.60057 4.6392 7.60057C4.88753 7.60057 5.12457 7.5774 5.35033 7.53105H5.51964C6.17433 7.50788 7.14507 7.50788 8.43186 7.53105C9.74123 7.53105 11.3779 7.53105 13.342 7.53105C13.5903 7.53105 13.8499 7.53105 14.1208 7.53105C14.3918 7.50788 14.6514 7.50788 14.8997 7.53105C15.4189 7.5774 15.9607 7.58898 16.5251 7.56581C17.1121 7.54264 17.6426 7.67009 18.1167 7.94816C18.2521 8.01767 18.3763 8.09877 18.4892 8.19146C18.6021 8.28415 18.7262 8.36526 18.8617 8.43478C19.1326 8.68967 19.2567 8.99091 19.2342 9.3385C19.2342 9.68609 19.1551 10.0453 18.9971 10.416C18.8617 10.7868 18.6811 11.1459 18.4553 11.4935C18.2296 11.8411 18.0377 12.1308 17.8796 12.3625Z" fill="white"/>
</g>
<defs>
<clipPath id="clip0_241_108">
<rect width="206" height="42" fill="white"/>
</clipPath>
</defs>
</svg>
