<svg width="34" height="33" viewBox="0 0 34 33" fill="none" xmlns="http://www.w3.org/2000/svg">
<g id="icons8-telegram 1">
<path id="Vector" d="M30.1763 3.95116C29.8451 3.96526 29.5227 4.05473 29.232 4.16772C28.9442 4.27996 27.2876 4.96625 24.8412 5.98143C22.3948 6.99662 19.2147 8.3186 16.0623 9.62948C9.75749 12.2512 3.56196 14.8308 3.56196 14.8308L3.60712 14.8141C3.60712 14.8141 3.23319 14.9354 2.85407 15.1918C2.66452 15.32 2.46058 15.4855 2.2936 15.7267C2.12663 15.968 2.00455 16.31 2.05056 16.6716C2.21214 17.942 3.5686 18.3023 3.5686 18.3023L3.57392 18.3049L9.62751 20.3158C9.78185 20.8155 11.4636 26.2635 11.8335 27.4173C12.0378 28.0551 12.2291 28.4231 12.4285 28.6741C12.5283 28.7997 12.6329 28.8969 12.7486 28.968C12.7946 28.9962 12.8429 29.0174 12.8907 29.0363H12.8934C12.8992 29.0388 12.9048 29.0391 12.9106 29.0415L12.8947 29.0376C12.9058 29.042 12.9168 29.0493 12.9279 29.0531C12.9495 29.0604 12.9627 29.0602 12.9903 29.066C13.6836 29.3009 14.2574 28.8649 14.2574 28.8649L14.2813 28.8468L18 25.4991L24.035 30.0663L24.1107 30.0998C25.1671 30.555 26.1224 30.301 26.6514 29.8832C27.1805 29.4654 27.3885 28.9267 27.3885 28.9267L27.4111 28.87L31.8457 6.43647C31.9592 5.93458 31.9753 5.50076 31.8683 5.10874C31.7613 4.71672 31.5013 4.37594 31.175 4.18706C30.8488 3.99818 30.5075 3.93706 30.1763 3.95116ZM30.2121 5.29307C30.3466 5.28703 30.4463 5.30195 30.4777 5.32014C30.5092 5.33834 30.5233 5.33594 30.5534 5.44647C30.5836 5.557 30.6 5.78981 30.5176 6.15417L30.5149 6.1619L26.1056 28.4653C26.0951 28.4877 26.0032 28.694 25.7934 28.8597C25.5794 29.0287 25.3414 29.1607 24.7097 28.9035L18.1102 23.9084L17.9243 23.7666L17.9203 23.7705L15.9467 22.3332L27.0379 9.66815C27.1231 9.57109 27.1776 9.45214 27.1946 9.32569C27.2117 9.19924 27.1906 9.0707 27.134 8.95561C27.0774 8.84053 26.9876 8.74383 26.8756 8.6772C26.7635 8.61058 26.634 8.57688 26.5027 8.58018C26.3743 8.58342 26.2495 8.62185 26.1427 8.69104L10.0937 19.0757L4.03079 17.0609C4.03079 17.0609 3.42875 16.7358 3.39993 16.5092C3.39833 16.4967 3.39123 16.508 3.42251 16.4628C3.45379 16.4176 3.53243 16.3413 3.63103 16.2746C3.82821 16.1412 4.05337 16.0606 4.05337 16.0606L4.07595 16.0529L4.09853 16.0439C4.09853 16.0439 10.2944 13.4641 16.5988 10.8425C19.7511 9.53168 22.9306 8.21066 25.3764 7.19573C27.8216 6.18106 29.5884 5.45071 29.738 5.39233C29.9083 5.32614 30.0776 5.29912 30.2121 5.29307ZM22.857 12.4035L14.4459 22.0083L14.442 22.0122C14.4288 22.0276 14.4164 22.0435 14.4048 22.0599C14.3914 22.0778 14.379 22.0963 14.3676 22.1153C14.3203 22.1932 14.29 22.2796 14.2786 22.3693C14.2786 22.371 14.2786 22.3727 14.2786 22.3744L13.1829 27.1569C13.1647 27.1052 13.1519 27.0863 13.1324 27.0254V27.0241C12.7844 25.9387 11.1977 20.8008 10.9782 20.0902L22.857 12.4035ZM15.3956 23.5823L16.907 24.6832L14.6863 26.6812L15.3956 23.5823Z" fill="white"/>
</g>
</svg>
