<svg width="41" height="33" viewBox="0 0 41 33" fill="none" xmlns="http://www.w3.org/2000/svg">
<g id="youtube-105 1">
<g id="Group">
<path id="Vector" d="M20.4769 3.22645C20.6024 3.22645 33.0595 3.23588 36.0689 4.04078C37.5018 4.42301 38.6296 5.54861 39.0131 6.97919C39.8186 9.98048 39.8285 16.412 39.8285 16.4767C39.8285 16.5414 39.8186 22.9729 39.0126 25.9747C38.6296 27.4048 37.5018 28.5304 36.0685 28.9131C33.0595 29.7175 20.6024 29.7269 20.4769 29.7269C20.3513 29.7269 7.89421 29.7175 4.8848 28.9126C3.45188 28.5304 2.32408 27.4048 1.94065 25.9742C1.13508 22.9729 1.12518 16.5414 1.12518 16.4767C1.12518 16.412 1.13508 9.98048 1.9411 6.97874C2.32408 5.54861 3.45188 4.42301 4.88525 4.04033C7.89421 3.23588 20.3513 3.22645 20.4769 3.22645ZM20.4769 2.32813C20.4769 2.32813 7.81096 2.32812 4.65258 3.173C2.91003 3.63788 1.53741 5.00782 1.07162 6.74697C0.225098 9.89918 0.225098 16.4767 0.225098 16.4767C0.225098 16.4767 0.225098 23.0542 1.07162 26.2064C1.53741 27.9456 2.91003 29.3155 4.65258 29.7804C7.81096 30.6253 20.4769 30.6253 20.4769 30.6253C20.4769 30.6253 33.1428 30.6253 36.3011 29.7804C38.0437 29.3155 39.4163 27.9456 39.8821 26.2064C40.7286 23.0542 40.7286 16.4767 40.7286 16.4767C40.7286 16.4767 40.7286 9.89918 39.8821 6.74697C39.4163 5.00782 38.0437 3.63788 36.3011 3.173C33.1428 2.32812 20.4769 2.32813 20.4769 2.32813Z" fill="white"/>
<path id="Vector_2" d="M17.3266 11.969L25.1492 16.4768L17.3266 20.9845V11.969ZM16.4265 10.4131V22.5404L26.9493 16.4768L16.4265 10.4131Z" fill="white"/>
</g>
</g>
</svg>
