<svg width="178" height="48" viewBox="0 0 178 48" fill="none" xmlns="http://www.w3.org/2000/svg">
<path d="M178 28.4834H174.335V24.3508C174.335 22.554 173.815 21.2214 172.777 20.3529C171.769 19.4845 170.455 19.0503 168.837 19.0503C167.645 19.0503 166.53 19.2749 165.492 19.7241C164.484 20.1733 163.629 20.7123 162.926 21.3412L162.239 18.4214C162.972 17.9123 163.934 17.4032 165.125 16.8941C166.347 16.3551 167.752 16.0856 169.341 16.0856C171.876 16.0856 173.953 16.7594 175.572 18.107C177.191 19.4545 178 21.5059 178 24.261V28.4834ZM159.719 25.5636H163.384V37.3326C163.232 37.3925 163.002 37.4524 162.697 37.5123C162.392 37.6021 162.056 37.6471 161.689 37.6471C161.048 37.6471 160.559 37.5273 160.223 37.2877C159.887 37.0182 159.719 36.5989 159.719 36.0299V25.5636ZM174.335 25.6086L178 25.6535V37.3326C177.847 37.3925 177.603 37.4524 177.267 37.5123C176.961 37.6021 176.641 37.6471 176.305 37.6471C175.633 37.6471 175.129 37.5273 174.793 37.2877C174.487 37.0182 174.335 36.5989 174.335 36.0299V25.6086ZM163.384 27.3155H159.719V8.31444C159.872 8.25454 160.101 8.19465 160.406 8.13476C160.742 8.04492 161.093 8 161.46 8C162.101 8 162.575 8.13476 162.88 8.40428C163.216 8.64385 163.384 9.04813 163.384 9.61711V27.3155Z" fill="white"/>
<path d="M147.723 18.972C145.627 18.972 143.886 19.6522 142.499 21.0125C141.112 22.3729 140.418 24.3247 140.418 26.8679C140.418 29.3815 141.081 31.3185 142.406 32.6789C143.762 34.0392 145.535 34.7194 147.723 34.7194C149.018 34.7194 150.096 34.5567 150.959 34.2314C151.822 33.8766 152.593 33.4773 153.271 33.0337C153.61 33.2112 153.888 33.433 154.103 33.6991C154.319 33.9653 154.427 34.2906 154.427 34.675C154.427 35.5031 153.78 36.2128 152.485 36.8042C151.221 37.3661 149.634 37.6471 147.723 37.6471C145.596 37.6471 143.685 37.2626 141.99 36.4937C140.326 35.6953 139.016 34.4976 138.06 32.9007C137.105 31.3038 136.627 29.2928 136.627 26.8679C136.627 24.4725 137.12 22.4764 138.106 20.8795C139.093 19.253 140.418 18.0405 142.083 17.242C143.778 16.414 145.627 16 147.631 16C149.542 16 151.114 16.3105 152.346 16.9315C153.61 17.5526 154.242 18.2623 154.242 19.0608C154.242 19.4156 154.134 19.7261 153.918 19.9923C153.703 20.2584 153.425 20.4654 153.086 20.6133C152.408 20.1697 151.653 19.7853 150.821 19.46C150.019 19.1347 148.987 18.972 147.723 18.972Z" fill="white"/>
<path d="M115.583 29.0858L115.399 26.2912L129.284 24.4725C129.161 22.846 128.579 21.5153 127.537 20.4802C126.495 19.4156 125.054 18.8833 123.215 18.8833C121.315 18.8833 119.736 19.5487 118.479 20.8795C117.253 22.1806 116.64 24.0585 116.64 26.513V27.4889C116.855 29.8547 117.652 31.6586 119.031 32.9007C120.441 34.1131 122.357 34.7194 124.778 34.7194C126.066 34.7194 127.23 34.5124 128.272 34.0984C129.315 33.6843 130.142 33.2408 130.755 32.7676C131.092 32.9746 131.353 33.226 131.537 33.5217C131.751 33.7878 131.859 34.0984 131.859 34.4532C131.859 35.0151 131.522 35.5474 130.847 36.0501C130.204 36.5233 129.33 36.9077 128.227 37.2035C127.154 37.4992 125.943 37.6471 124.594 37.6471C122.234 37.6471 120.18 37.233 118.433 36.405C116.717 35.577 115.383 34.3497 114.433 32.7232C113.514 31.0672 113.054 29.0562 113.054 26.6905C113.054 25.0048 113.299 23.5114 113.79 22.2102C114.311 20.8795 115.016 19.7557 115.905 18.839C116.824 17.9222 117.912 17.2273 119.169 16.7541C120.426 16.2514 121.79 16 123.261 16C125.131 16 126.771 16.3844 128.181 17.1533C129.621 17.9222 130.74 19.0016 131.537 20.3915C132.364 21.7518 132.778 23.3192 132.778 25.0935C132.778 25.7441 132.625 26.2173 132.319 26.513C132.012 26.7792 131.583 26.9418 131.031 27.001L115.583 29.0858Z" fill="white"/>
<path d="M97.6594 25.6326H101.282V31.8526C101.282 33.0546 101.629 33.911 102.323 34.4218C103.017 34.9026 103.968 35.1429 105.176 35.1429C105.689 35.1429 106.262 35.0528 106.896 34.8725C107.53 34.6922 108.058 34.4819 108.481 34.2415C108.662 34.4218 108.828 34.6471 108.979 34.9176C109.13 35.188 109.205 35.5035 109.205 35.8641C109.205 36.5252 108.813 37.066 108.028 37.4867C107.243 37.9074 106.157 38.1177 104.768 38.1177C102.655 38.1177 100.935 37.652 99.6064 36.7205C98.3084 35.789 97.6594 34.2415 97.6594 32.078V25.6326ZM99.5158 20.1338V17.159H108.707C108.798 17.2792 108.888 17.4745 108.979 17.7449C109.07 18.0154 109.115 18.3008 109.115 18.6013C109.115 19.0821 108.994 19.4577 108.753 19.7281C108.511 19.9986 108.179 20.1338 107.756 20.1338H99.5158ZM101.282 26.9848H97.6594V10.6685C97.8104 10.6084 98.0367 10.5483 98.3386 10.4882C98.6706 10.3981 99.0178 10.353 99.38 10.353C100.014 10.353 100.482 10.4882 100.784 10.7587C101.116 10.9991 101.282 11.4047 101.282 11.9756V26.9848Z" fill="white"/>
<path d="M82.7134 34.7254C84.0079 34.7254 85.0713 34.6073 85.9035 34.3712C86.7666 34.1056 87.383 33.8548 87.7529 33.6187V27.1998L82.0199 27.7753C80.4171 27.8933 79.2305 28.2327 78.4599 28.7935C77.6893 29.3542 77.304 30.1658 77.304 31.2282C77.304 32.3201 77.751 33.176 78.6448 33.7957C79.5695 34.4155 80.9257 34.7254 82.7134 34.7254ZM82.6672 16C85.3487 16 87.4755 16.5755 89.0474 17.7265C90.6194 18.8774 91.4054 20.6924 91.4054 23.1714V33.6629C91.4054 34.3122 91.2667 34.8139 90.9892 35.168C90.7427 35.4927 90.3574 35.8026 89.8334 36.0977C89.0937 36.4813 88.1073 36.8355 86.8744 37.1601C85.6415 37.4847 84.2545 37.6471 82.7134 37.6471C79.8161 37.6471 77.566 37.1011 75.9633 36.0091C74.3913 34.9172 73.6053 33.3383 73.6053 31.2725C73.6053 29.3542 74.268 27.8933 75.5934 26.8899C76.9496 25.857 78.8144 25.2373 81.1877 25.0307L87.7529 24.4109V23.1714C87.7529 21.6958 87.2905 20.6186 86.3659 19.9399C85.4412 19.2611 84.1929 18.9217 82.6209 18.9217C81.3572 18.9217 80.1397 19.0988 78.9685 19.4529C77.828 19.807 76.8109 20.2055 75.917 20.6481C75.6705 20.4416 75.4393 20.2055 75.2235 19.9399C75.0386 19.6447 74.9461 19.3496 74.9461 19.0545C74.9461 18.2872 75.3931 17.6969 76.2869 17.2838C77.1191 16.8706 78.0746 16.5607 79.1534 16.3541C80.263 16.118 81.4343 16 82.6672 16Z" fill="white"/>
<path d="M57.7297 25.6326H61.352V31.8526C61.352 33.0546 61.6991 33.911 62.3934 34.4218C63.0877 34.9026 64.0385 35.1429 65.2459 35.1429C65.7591 35.1429 66.3326 35.0528 66.9665 34.8725C67.6004 34.6922 68.1286 34.4819 68.5512 34.2415C68.7323 34.4218 68.8984 34.6471 69.0493 34.9176C69.2002 35.188 69.2757 35.5035 69.2757 35.8641C69.2757 36.5252 68.8833 37.066 68.0984 37.4867C67.3136 37.9074 66.227 38.1177 64.8384 38.1177C62.7254 38.1177 61.0049 37.652 59.6767 36.7205C58.3787 35.789 57.7297 34.2415 57.7297 32.078V25.6326ZM59.5861 20.1338V17.159H68.7776C68.8682 17.2792 68.9587 17.4745 69.0493 17.7449C69.1399 18.0154 69.1851 18.3008 69.1851 18.6013C69.1851 19.0821 69.0644 19.4577 68.8229 19.7281C68.5814 19.9986 68.2494 20.1338 67.8268 20.1338H59.5861ZM61.352 26.9848H57.7297V10.6685C57.8807 10.6084 58.1071 10.5483 58.4089 10.4882C58.741 10.3981 59.0881 10.353 59.4503 10.353C60.0842 10.353 60.5521 10.4882 60.8539 10.7587C61.186 10.9991 61.352 11.4047 61.352 11.9756V26.9848Z" fill="white"/>
<path d="M35.2423 29.0858L35.0584 26.2912L48.9435 24.4725C48.8209 22.846 48.2386 21.5153 47.1964 20.4802C46.1542 19.4156 44.7136 18.8833 42.8745 18.8833C40.9741 18.8833 39.3956 19.5487 38.1388 20.8795C36.9128 22.1806 36.2997 24.0585 36.2997 26.513V27.4889C36.5143 29.8547 37.3112 31.6586 38.6906 32.9007C40.1005 34.1131 42.0163 34.7194 44.4378 34.7194C45.7251 34.7194 46.8899 34.5124 47.932 34.0984C48.9742 33.6843 49.8018 33.2408 50.4148 32.7676C50.752 32.9746 51.0125 33.226 51.1964 33.5217C51.411 33.7878 51.5183 34.0984 51.5183 34.4532C51.5183 35.0151 51.1811 35.5474 50.5068 36.0501C49.8631 36.5233 48.9895 36.9077 47.8861 37.2035C46.8132 37.4992 45.6025 37.6471 44.2538 37.6471C41.8937 37.6471 39.84 37.233 38.0929 36.405C36.3764 35.577 35.043 34.3497 34.0928 32.7232C33.1733 31.0672 32.7135 29.0562 32.7135 26.6905C32.7135 25.0048 32.9587 23.5114 33.4491 22.2102C33.9702 20.8795 34.6752 19.7557 35.5641 18.839C36.4837 17.9222 37.5718 17.2273 38.8285 16.7541C40.0852 16.2514 41.4492 16 42.9205 16C44.7902 16 46.4301 16.3844 47.8401 17.1533C49.2807 17.9222 50.3995 19.0016 51.1964 20.3915C52.024 21.7518 52.4378 23.3192 52.4378 25.0935C52.4378 25.7441 52.2846 26.2173 51.978 26.513C51.6715 26.7792 51.2424 26.9418 50.6907 27.001L35.2423 29.0858Z" fill="white"/>
<path d="M13.7336 37.1766H12.2751C12.0624 36.9973 11.8801 36.7732 11.7282 36.5043C11.6067 36.2055 11.5459 35.9067 11.5459 35.608C11.5459 35.2494 11.6219 34.9207 11.7738 34.622C11.9561 34.2933 12.1536 33.9796 12.3663 33.6808L26.3581 16.4707H27.771C28.0141 16.6799 28.1964 16.9189 28.3179 17.1878C28.4698 17.4567 28.5458 17.7555 28.5458 18.0841C28.5458 18.4128 28.4698 18.7265 28.3179 19.0253C28.166 19.3241 27.9533 19.6378 27.6798 19.9665L13.7336 37.1766ZM27.2697 16.4707V19.4287H12.2295C12.1384 19.2793 12.0472 19.0701 11.9561 18.8012C11.8649 18.5323 11.8194 18.2485 11.8194 17.9497C11.8194 17.4418 11.9409 17.0683 12.184 16.8292C12.427 16.5902 12.7613 16.4707 13.1866 16.4707H27.2697ZM12.5486 37.1766V34.2634H28.4546C28.5458 34.3829 28.6369 34.5771 28.7281 34.8461C28.8192 35.0851 28.8648 35.3689 28.8648 35.6976C28.8648 36.1757 28.7433 36.5491 28.5002 36.818C28.2571 37.0571 27.9077 37.1766 27.452 37.1766H12.5486Z" fill="white"/>
<path fill-rule="evenodd" clip-rule="evenodd" d="M0.481079 5C0.481079 2.23858 2.71965 0 5.48108 0H89.773C92.5344 0 94.773 2.23858 94.773 5V10.3195C94.773 10.5852 94.5576 10.8006 94.2919 10.8006V10.8006C94.0262 10.8006 93.8108 10.5852 93.8108 10.3195V5.87088C93.8108 3.14828 91.6037 0.941176 88.8811 0.941176H6.44324C3.68182 0.941176 1.44324 3.17975 1.44324 5.94117V42.0588C1.44324 44.8202 3.68181 47.0588 6.44324 47.0588H89.2637C91.775 47.0588 93.8108 45.023 93.8108 42.5117V38.4457C93.8108 38.18 94.0262 37.9646 94.2919 37.9646V37.9646C94.5576 37.9646 94.773 38.18 94.773 38.4457V43C94.773 45.7614 92.5344 48 89.773 48H5.48108C2.71966 48 0.481079 45.7614 0.481079 43V5Z" fill="white"/>
</svg>
