<svg width="64" height="64" viewBox="0 0 64 64" fill="none" xmlns="http://www.w3.org/2000/svg">
<g id="like-1087 1">
<g id="Group">
<path id="Vector" d="M9.83895 60.8608C9.70336 60.8608 9.56638 60.8341 9.43571 60.7793C9.04863 60.617 8.79714 60.2384 8.79714 59.8183V50.4142C8.79714 49.862 8.34942 49.4142 7.79714 49.4142H3.70682C1.85644 49.4142 0.351685 47.9095 0.351685 46.0591V12.4775C0.351685 10.6278 1.85644 9.12306 3.70682 9.12306H33.7103C34.2625 9.12306 34.7103 9.57078 34.7103 10.1231V10.2074C34.7103 10.7597 34.2625 11.2074 33.7103 11.2074H3.70682C3.00643 11.2074 2.436 11.7771 2.436 12.4775V46.0591C2.436 46.7602 3.00573 47.3299 3.70682 47.3299H9.83965C10.4157 47.3299 10.8822 47.7964 10.8822 48.3724V54.9532C10.8822 55.8396 11.9499 56.2878 12.5826 55.667L20.7734 47.6292C20.9687 47.4381 21.23 47.3306 21.5033 47.3306H53.5766C54.2777 47.3306 54.8474 46.7609 54.8474 46.0598V44.3861C54.8474 43.8338 55.2951 43.3861 55.8474 43.3861H55.9317C56.484 43.3861 56.9317 43.8338 56.9317 44.3861V46.0598C56.9317 47.9102 55.427 49.415 53.5766 49.415H22.3377C22.0757 49.415 21.8242 49.5177 21.6373 49.7012L10.5695 60.5629C10.3707 60.7575 10.1073 60.8608 9.83895 60.8608Z" fill="#180D27"/>
<path id="Vector_2" d="M62.5152 26.916C63.1067 26.2901 63.4699 25.4457 63.4699 24.5184V24.0294C63.4699 22.9981 63.0217 22.0701 62.308 21.4302C62.8496 20.8148 63.1777 20.0083 63.1777 19.126V18.637C63.1777 16.7108 61.6104 15.1428 59.6827 15.1428L50.5812 15.1575C51.1024 9.15608 50.4961 5.72226 48.65 4.09246C47.5133 3.08929 45.9966 2.82445 44.0107 3.28669L43.2435 3.46513L43.2063 4.25193C42.9935 8.71842 40.6928 14.3159 38.1813 16.474C37.7957 16.8056 37.4254 17.036 37.0707 17.1765C36.9744 15.9647 35.9031 15.003 34.5859 15.003H24.321C22.9406 15.003 21.818 16.0553 21.818 17.3486V36.5887C21.818 37.882 22.9406 38.9344 24.321 38.9344H34.5866C35.7514 38.9344 36.725 38.1813 37.0025 37.1697C38.8073 38.2536 41.443 38.8002 43.8442 38.8002C43.9755 38.8002 44.1076 38.7988 44.2369 38.7953H58.0579C59.9841 38.7953 61.5514 37.228 61.5514 35.3017V34.8128C61.5514 34.2438 61.4144 33.7056 61.172 33.2301C62.5665 32.772 63.5767 31.4576 63.5767 29.9107V29.4218C63.5767 28.4404 63.17 27.5517 62.5152 26.916ZM35.0053 36.5901C35.0053 36.6941 34.8381 36.8514 34.5866 36.8514H24.321C24.0695 36.8514 23.9023 36.6941 23.9023 36.5901V17.35C23.9023 17.2461 24.0695 17.0887 24.321 17.0887H34.5866C34.8381 17.0887 35.0053 17.2461 35.0053 17.35V35.0537V36.5901ZM61.4924 29.9107C61.4924 30.6877 60.8601 31.3207 60.0832 31.3207H58.0579H55.6139V33.405H58.0579C58.8348 33.405 59.4671 34.0372 59.4671 34.8142V35.3031C59.4671 36.0801 58.8348 36.7123 58.0579 36.7123H44.2102C40.8129 36.8058 37.8757 35.6874 37.0896 34.5374V19.3465C37.9123 19.1822 38.7328 18.7508 39.5414 18.0561C42.3113 15.6753 44.7673 10.0497 45.2295 5.18555C46.409 5.04646 46.9541 5.37452 47.2724 5.65623C48.6198 6.84556 48.9984 10.3574 48.3985 16.094L48.2784 17.2461L59.6856 17.2271C60.4625 17.2271 61.0948 17.8594 61.0948 18.637V19.126C61.0948 19.9029 60.4625 20.5359 59.6856 20.5359H55.6146V22.6202H59.6856H59.9771C60.7541 22.6202 61.3863 23.2524 61.3863 24.0301V24.5191C61.3863 25.296 60.7541 25.929 59.9771 25.929H55.6146V28.0133H59.9771H60.0839C60.8608 28.0133 61.4931 28.6455 61.4931 29.4232L61.4924 29.9107Z" fill="#180D27"/>
</g>
</g>
</svg>
