<svg width="64" height="64" viewBox="0 0 64 64" fill="none" xmlns="http://www.w3.org/2000/svg">
<g id="info">
<path id="Vector" d="M14 49H49.5" stroke="#180D27" stroke-width="2" stroke-linecap="round"/>
<path id="Vector_2" d="M23 8H52" stroke="#180D27" stroke-width="2" stroke-linecap="round"/>
<path id="Vector_3" d="M14 54H39" stroke="#180D27" stroke-width="2" stroke-linecap="round"/>
<rect id="Rectangle" x="4" y="4" width="56" height="55" rx="2" stroke="#180D27" stroke-width="2"/>
<rect id="Rectangle_2" x="11" y="7" width="2" height="2" fill="#180D27"/>
<rect id="Rectangle_3" x="7" y="7" width="2" height="2" fill="#180D27"/>
<path id="i (Stroke)" fill-rule="evenodd" clip-rule="evenodd" d="M35.7488 43.1062C35.4629 43.1846 35.1453 43.2536 34.7962 43.3134C34.4213 43.3776 34.0308 43.4257 33.6246 43.4578C33.2185 43.4899 32.8279 43.506 32.453 43.506C32.1302 43.506 31.8334 43.4846 31.5626 43.4418C31.2918 43.4097 31.0523 43.3348 30.844 43.2171C30.6462 43.1101 30.4899 42.9603 30.3754 42.7677C30.2608 42.5644 30.2036 42.297 30.2036 41.9653V28.3557H27.4542V27.152C27.6729 27.0557 27.9801 26.9648 28.3759 26.8792C28.4032 26.8733 28.4307 26.8674 28.4584 26.8617C28.8315 26.7841 29.2362 26.7204 29.6724 26.6706C30.1515 26.6171 30.6357 26.5743 31.1252 26.5422C31.6251 26.5101 32.0781 26.494 32.4843 26.494C32.703 26.494 32.8956 26.4994 33.0622 26.5101C33.2289 26.5208 33.3695 26.5529 33.484 26.6064C33.5986 26.6599 33.6819 26.7455 33.734 26.8631C33.7965 26.9701 33.8277 27.1306 33.8277 27.3446V41.6122H36.5458V42.8159C36.3688 42.9122 36.124 43.0031 35.8116 43.0887C35.7908 43.0946 35.7699 43.1004 35.7488 43.1062ZM36.1926 44.5306C35.8346 44.6317 35.4477 44.7165 35.0353 44.7871C34.6152 44.859 34.182 44.9122 33.7361 44.9475C33.296 44.9822 32.8682 45 32.453 45C32.0781 45 31.715 44.9758 31.3673 44.9225C30.9503 44.8698 30.5387 44.7475 30.1547 44.5326C29.7345 44.3027 29.386 43.9695 29.1345 43.5468L29.1255 43.5316L29.1169 43.5163C28.832 43.0107 28.7493 42.4572 28.7493 41.9653V29.8497H26V26.1669L26.8814 25.7788C27.2281 25.6262 27.6421 25.5111 28.0763 25.4172C28.5247 25.3202 29.004 25.2437 29.5118 25.1857L29.5153 25.1853C30.0162 25.1294 30.5219 25.0847 31.0326 25.0512L31.0345 25.0511C31.5579 25.0174 32.0419 25 32.4843 25C32.7245 25 32.9486 25.0058 33.153 25.019C33.4418 25.0375 33.7669 25.0974 34.0858 25.2463C34.4965 25.4381 34.8226 25.7604 35.0239 26.1721C35.2486 26.6004 35.2819 27.048 35.2819 27.3446V40.1182H38V43.7154L37.2262 44.1363C36.9133 44.3065 36.5528 44.4316 36.1926 44.5306Z" fill="#180D27"/>
<circle id="Ellipse" cx="32" cy="20" r="3.25" stroke="#180D27" stroke-width="1.5"/>
</g>
</svg>
