<svg width="64" height="64" viewBox="0 0 64 64" fill="none" xmlns="http://www.w3.org/2000/svg">
<g id="price">
<path id="Vector" d="M4.75575 0.189522C2.44257 0.80238 0.617039 2.69099 0.141901 4.96733C-0.0706611 5.95541 -0.0331502 8.91966 0.179412 9.35741C0.504506 9.97028 0.679558 9.99529 5.50596 9.99529H10.0073V32.9838C10.0073 58.0986 9.96977 56.5727 10.72 58.1486C11.1451 59.0241 12.4955 60.3749 13.3958 60.8127C14.9212 61.5506 14.2835 61.5256 29.788 61.5256H44.0172L44.8424 62.0884C48.356 64.4398 53.0698 64.6399 57.146 62.5887C61.2347 60.525 63.7479 56.6853 63.9855 52.1451C64.1981 47.705 62.0599 43.5025 58.3589 41.0886C57.3336 40.4132 55.6081 39.6502 54.5578 39.3876L54.0201 39.25V22.4401C54.0201 10.6832 53.9826 5.4301 53.8826 4.96733C53.4074 2.65347 51.2818 0.539726 49.0187 0.114475C48.5935 0.0394325 40.5912 -0.0105972 26.8997 0.00191116C8.50684 0.00191116 5.34342 0.0269241 4.75575 0.189522ZM7.93167 2.91613C9.25706 3.56651 9.89474 4.65465 9.98227 6.39317L10.0323 7.49382H6.26869H2.50509V6.64332C2.50509 4.65465 3.38034 3.31636 5.06834 2.7035C5.93109 2.40332 7.04391 2.47837 7.93167 2.91613ZM49.4188 2.90362C50.219 3.30385 50.8067 3.90421 51.1943 4.72969C51.4569 5.30503 51.4569 5.31754 51.4944 22.1399L51.5194 38.9748L50.5566 39.0624C45.155 39.5127 40.6412 43.3649 39.3783 48.5805C39.2533 49.1308 39.1033 50.0188 39.0657 50.5441L38.9782 51.5197H29.9881C20.1727 51.5197 20.4478 51.4947 20.1602 52.2326C20.0852 52.4203 19.9977 53.3958 19.9852 54.3964C19.9352 56.4101 19.7976 56.9229 19.0224 57.8109C18.0096 58.9616 16.059 59.3118 14.6086 58.6114C13.8084 58.2237 13.2207 57.6108 12.8331 56.7853L12.5705 56.21L12.508 30.5699L12.4455 4.92981L12.1704 4.19188C12.0079 3.77913 11.7453 3.22881 11.5702 2.96616L11.2576 2.49088L29.9756 2.51589L48.7061 2.55341L49.4188 2.90362ZM53.9826 41.8891C58.2963 42.9272 61.1472 46.3917 61.4848 51.0194C61.6723 53.721 60.572 56.5477 58.5589 58.5614C54.6453 62.4762 48.381 62.4887 44.4673 58.5739C43.1544 57.2731 42.3292 55.8097 41.7915 53.8336C41.479 52.7204 41.529 50.269 41.8791 48.9557C42.8544 45.3036 45.4176 42.7771 48.9936 41.8891C50.344 41.5639 52.6072 41.5639 53.9826 41.8891ZM39.3908 54.5465C39.7034 55.7972 40.4411 57.4482 41.1539 58.4738L41.529 59.0241H31.3885H21.2606L21.5731 58.5489C22.1358 57.6984 22.4109 56.6853 22.4859 55.2969L22.5484 54.0212H30.9009H39.2533L39.3908 54.5465Z" fill="#180D27"/>
<path id="Vector_2" d="M16.9177 11.0614C16.3381 11.4096 16.314 11.603 16.3019 15.3686C16.3019 19.1857 16.3381 19.4565 16.966 19.7532C17.4611 19.9982 23.6921 19.9724 24.1389 19.7274C24.7185 19.405 24.7547 19.1342 24.7547 15.3944C24.7547 11.6546 24.7185 11.3838 24.1389 11.0614C23.6679 10.8034 17.3524 10.8034 16.9177 11.0614ZM22.3396 15.3944V17.3287H20.5283H18.717V15.3944V13.46H20.5283H22.3396V15.3944Z" fill="#180D27"/>
<path id="Vector_3" d="M29 13H46.5" stroke="#180D27" stroke-width="2" stroke-linecap="round"/>
<path id="Vector_4" d="M29 18L43 18" stroke="#180D27" stroke-width="2" stroke-linecap="round"/>
<path id="Vector_5" d="M16.9177 23.7406C16.3381 24.0888 16.314 24.2822 16.3019 28.0478C16.3019 31.865 16.3381 32.1358 16.966 32.4324C17.4611 32.6774 23.6921 32.6516 24.1389 32.4066C24.7185 32.0842 24.7547 31.8134 24.7547 28.0736C24.7547 24.3338 24.7185 24.063 24.1389 23.7406C23.6679 23.4827 17.3524 23.4827 16.9177 23.7406ZM22.3396 28.0736V30.008H20.5283H18.717V28.0736V26.1392H20.5283H22.3396V28.0736Z" fill="#180D27"/>
<path id="Vector_6" d="M29.5777 24.9081C28.5159 25.4918 28.9675 27.1698 30.1757 27.1698C30.7982 27.1698 31.3962 26.574 31.3962 25.966C31.3962 25.054 30.3832 24.4582 29.5777 24.9081Z" fill="#180D27"/>
<path id="Vector_7" d="M36 26L49 26" stroke="#180D27" stroke-width="2" stroke-linecap="round"/>
<path id="Vector_8" d="M29 31L38 31" stroke="#180D27" stroke-width="2" stroke-linecap="round"/>
<path id="Vector_9" d="M16.9177 36.4199C16.3381 36.768 16.314 36.9615 16.3019 40.7271C16.3019 44.5442 16.3381 44.815 16.966 45.1116C17.4611 45.3567 23.6921 45.3309 24.1389 45.0859C24.7185 44.7635 24.7547 44.4926 24.7547 40.7529C24.7547 37.0131 24.7185 36.7422 24.1389 36.4199C23.6679 36.1619 17.3524 36.1619 16.9177 36.4199ZM22.3396 40.7529V42.6872H20.5283H18.717V40.7529V38.8185H20.5283H22.3396V40.7529Z" fill="#180D27"/>
<path id="Vector_10" d="M29 38H43" stroke="#180D27" stroke-width="2" stroke-linecap="round"/>
<path id="Vector_11" d="M29 43L38 43" stroke="#180D27" stroke-width="2" stroke-linecap="round"/>
<path id="Vector_12" d="M51.037 43.6318C50.6388 43.8704 50.4336 44.31 50.4215 44.963C50.4215 45.4904 50.3853 45.5532 49.8543 45.9677C48.2973 47.1607 47.8508 49.2579 48.7922 50.9407C49.2025 51.6566 49.7094 52.0835 50.7836 52.5859C52.1957 53.2515 52.2077 53.264 52.4129 53.7161C52.6543 54.231 52.4974 54.8966 52.075 55.198C51.7491 55.4366 51.0491 55.4366 50.506 55.198C49.8181 54.9092 49.3715 54.9594 48.9611 55.3738C48.6956 55.6627 48.6111 55.8636 48.6111 56.2403C48.6111 56.8808 48.9853 57.2952 49.806 57.5966C50.3974 57.8227 50.4215 57.8478 50.4215 58.2999C50.4215 59.4678 51.2905 60.0957 52.2198 59.606C52.6302 59.3799 52.8353 58.9278 52.8353 58.212C52.8353 57.7222 52.8836 57.6343 53.2457 57.3957C54.7905 56.4162 55.3819 54.3064 54.5974 52.5984C54.1871 51.7068 53.6319 51.1919 52.4733 50.6519C51.037 49.9738 51.0008 49.9486 50.8198 49.5091C50.687 49.17 50.675 48.9942 50.7836 48.6551C51.037 47.864 51.8095 47.6128 52.7388 48.0272C53.4267 48.3286 53.8853 48.2909 54.2957 47.864C54.9595 47.1607 54.6819 46.1812 53.6922 45.7291C53.3664 45.5909 53.0405 45.4653 52.9681 45.4653C52.8957 45.4653 52.8353 45.2393 52.8353 44.963C52.8353 44.31 52.6181 43.8579 52.2198 43.6318C51.8095 43.4183 51.4112 43.4183 51.037 43.6318Z" fill="#180D27"/>
</g>
</svg>
