<svg width="64" height="64" viewBox="0 0 64 64" fill="none" xmlns="http://www.w3.org/2000/svg">
<g id="phone" clip-path="url(#clip0_554_288)">
<path id="Vector" d="M42.2729 33.5486C42.1582 33.5486 42.0434 33.5208 41.938 33.4647C41.7057 33.3418 41.5603 33.1002 41.5603 32.838V28.0257H37.7126C37.3185 28.0257 37 27.7074 37 27.3151V10.2591C37 9.86687 37.3185 9.54855 37.7126 9.54855H63.2874C63.6815 9.54855 64 9.86687 64 10.2591V27.3151C64 27.7074 63.6815 28.0257 63.2874 28.0257H50.7173L42.6705 33.4278C42.5508 33.5081 42.4118 33.5478 42.2729 33.5486ZM39 26.0486H42.2729C42.6669 26.0486 42.9854 26.3669 42.9854 26.7591L42.9847 31.5037L50.3065 26.0232H61.9818V11.0486H39V26.0486Z" fill="#180D27"/>
<path id="Vector_2" d="M45.2981 63H18.7019C18.3145 63 18 62.6894 18 62.3051V44.6949C18 44.3106 18.3145 44 18.7019 44H45.2981C45.6862 44 46 44.3106 46 44.6949V62.3051C46 62.6894 45.6862 63 45.2981 63ZM20 61H44V46H20V61Z" fill="#180D27"/>
<path id="Vector_3" d="M31.5 58C31.3345 58 31.169 57.943 31.0375 57.8283L22.2299 50.1702C21.9453 49.9227 21.9217 49.4987 22.1772 49.223C22.4313 48.9479 22.8697 48.9231 23.1549 49.172L31.5 56.4276L39.8451 49.172C40.129 48.9245 40.5673 48.9466 40.8228 49.223C41.0783 49.4987 41.0547 49.9227 40.7701 50.1702L31.9625 57.8283C31.831 57.943 31.6655 58 31.5 58Z" fill="#180D27"/>
<path id="Vector_4" d="M11.0002 11.5C12.4889 13.5842 8.99623 16.9999 8.49811 17.5C8 18 15.5 25 15.9981 25C16.4963 24.9999 19 21.5 21 22.5C22.143 23.0715 29.5012 27 25.0001 30.5C15.6241 37.7905 -1.5 23 2.00023 10.5C3.50772 5.11641 8.50021 7.99999 11.0002 11.5Z" stroke="#180D27" stroke-width="2"/>
<path id="Vector_5" d="M45.7254 19.5074H44.6576C44.2691 19.5074 43.9551 19.1927 43.9551 18.8049C43.9551 18.4171 44.2691 18.1024 44.6576 18.1024H45.7254C46.1139 18.1024 46.4279 18.4171 46.4279 18.8049C46.4279 19.1927 46.1139 19.5074 45.7254 19.5074Z" fill="#180D27"/>
<path id="Vector_6" d="M51.3454 19.5074H50.2776C49.8891 19.5074 49.5751 19.1927 49.5751 18.8049C49.5751 18.4171 49.8891 18.1024 50.2776 18.1024H51.3454C51.7339 18.1024 52.0479 18.4171 52.0479 18.8049C52.0479 19.1927 51.7339 19.5074 51.3454 19.5074Z" fill="#180D27"/>
<path id="Vector_7" d="M56.9654 19.5074H55.8976C55.5091 19.5074 55.1951 19.1927 55.1951 18.8049C55.1951 18.4171 55.5091 18.1024 55.8976 18.1024H56.9654C57.3538 18.1024 57.6679 18.4171 57.6679 18.8049C57.6679 19.1927 57.3538 19.5074 56.9654 19.5074Z" fill="#180D27"/>
<path id="Ellipse" d="M47.1948 5.16187C47.5001 4.65611 47.3386 3.99672 46.8221 3.70988C42.0056 1.0351 36.5291 -0.240986 31.0126 0.0375278C25.496 0.316041 20.1759 2.13722 15.6533 5.2835C15.1683 5.6209 15.074 6.2932 15.4288 6.76564C15.7835 7.23808 16.453 7.3316 16.9389 6.99558C21.1197 4.10464 26.0299 2.4313 31.1204 2.1743C36.211 1.91729 41.2648 3.08758 45.7155 5.54274C46.2328 5.82811 46.8894 5.66764 47.1948 5.16187Z" fill="#180D27"/>
<path id="Ellipse_2" d="M4.07514 28.9431C3.48445 28.9315 2.99419 29.4011 3.00404 29.9918C3.07168 34.0489 3.97573 38.0526 5.66397 41.7508C7.35222 45.449 9.78495 48.7547 12.806 51.4636C13.2459 51.858 13.9219 51.7952 14.3001 51.3413C14.6783 50.8875 14.6154 50.2145 14.1766 49.8188C11.4014 47.3161 9.1653 44.2687 7.61025 40.8623C6.0552 37.4558 5.21752 33.77 5.14463 30.0337C5.13311 29.443 4.66583 28.9546 4.07514 28.9431Z" fill="#180D27"/>
<path id="Ellipse_3" d="M49.223 52.141C49.5748 52.6157 50.2461 52.7169 50.7077 52.3482C53.8783 49.816 56.4955 46.6543 58.3918 43.0583C60.2881 39.4623 61.4189 35.5168 61.7177 31.4701C61.7612 30.8809 61.2985 30.3841 60.7081 30.362C60.1177 30.3399 59.6234 30.8008 59.5782 31.3899C59.2924 35.116 58.246 38.7481 56.4993 42.0603C54.7526 45.3726 52.3465 48.2876 49.4331 50.628C48.9725 50.998 48.8713 51.6663 49.223 52.141Z" fill="#180D27"/>
</g>
<defs>
<clipPath id="clip0_554_288">
<rect width="64" height="64" fill="white"/>
</clipPath>
</defs>
</svg>
